<svg xmlns="http://www.w3.org/2000/svg" viewBox="0 0 30 30" xml:space="preserve"><g fill="#F08316"><path d="m28.1 14.2-4.9-2.6c-.3-.2-.5-.4-.7-.7L19.9 6c-.1-.3-.4-.5-.6-.7-.8-.3-1.8 0-2.2.7l-2.6 4.9c-.1.3-.4.5-.6.7L9 14.2c-.3.2-.5.4-.6.7-.4.8-.1 1.7.6 2.2l4.9 2.6c.3.2.5.4.6.7l2.6 4.9c.2.3.4.5.7.6.8.4 1.7.1 2.1-.6l2.6-4.9c.2-.3.4-.5.7-.7l4.9-2.6c.3-.2.5-.4.7-.7.4-.8.1-1.8-.7-2.2zM1.4 5.1l2.1 1.1.3.3L5 8.6c0 .2.1.2.2.3.4.2.8.1 1-.3l1.1-2.1.3-.3 2.1-1.1.3-.3c.2-.3 0-.7-.3-.9L7.6 2.8l-.3-.3L6.2.4C6.1.2 6 .1 5.9.1c-.4-.2-.8-.1-.9.3L3.8 2.5c0 .1-.1.2-.3.3L1.4 3.9c-.1.1-.2.2-.2.3-.2.3-.1.7.2.9zM9.7 24.9l-2.1-1.1-.3-.3-1.1-2.1-.3-.3c-.3-.2-.7 0-.9.3l-1.1 2.1-.3.3-2.1 1.1-.3.3c-.2.3 0 .7.3.9l2.1 1.1.3.3L5 29.6l.3.3c.3.2.7 0 .9-.3l1.1-2.1.3-.3 2.1-1.1.3-.3c.2-.3 0-.7-.3-.9z"/></g></svg>