<?xml version="1.0" encoding="UTF-8"?>
<svg data-name="Layer 1" viewBox="0 0 509.1 510" xmlns="http://www.w3.org/2000/svg" xmlns:xlink="http://www.w3.org/1999/xlink">
<defs>
<style>.\34 c2d7ab6-874f-4779-ba6a-15856ff567d2{fill:url(#a);}.\38 0aee64e-59ae-48ba-8b8d-8af6e6b2448e{fill:url(#s);}.da5caf7b-e575-4f1b-ad1e-afcbbedfff52{fill:url(#at);}.\38 4d3226d-ff2c-4b0c-bc1a-44c1d1bab015{fill:url(#b);}.\30 25eef0b-c51d-4da2-93ac-babd6afea039{fill:url(#u);}.\33 5f59675-0cb5-4952-93db-27723fe0c67f{fill:url(#y);}.\32 b1dcd91-86e8-4004-a6aa-1566d078e111{fill:url(#bf);}.\31 797aec9-a8fc-4619-b95a-924f9d585bd2{fill:url(#ah);}.c21b946e-0459-41cb-b7f6-da399d9002ac{fill:url(#au);}.\37 ca69401-f28a-4a9c-a90a-5223eb743206{fill:url(#w);}.c50c6e29-187f-4b28-a692-b6c726f46d40{fill:url(#ag);}.f9591a16-3148-464c-8e12-7dbe36befaeb{fill:url(#n);}.f083fd77-b2ce-4d3d-8ab8-ebfb02e26755{fill:url(#ab);}.\39 766481a-5e06-4269-aaed-a4fc79485e4b{fill:url(#k);}.\33 eb9b33a-d45f-42b4-8b7d-cb01aa95160d{fill:url(#r);}.c3122718-3177-4d7a-8eff-09bff85cd70e{fill:url(#as);}.f103a40c-c03d-47a8-b0c3-ef250daeb128{fill:url(#o);}.d0fd92b9-fbd9-47f0-b651-70ca36ff073a{fill:url(#ap);}.\35 c0527b9-db7e-4985-910d-75f197b0e343{fill:url(#ar);}.\37 1cb78b3-04e0-40ed-8068-3b2b36cabdf0{fill:url(#aw);}.c689794e-d4c8-4788-a126-3a5a3ba5fc1e{fill:url(#bc);}.f4d64351-c6e7-495d-b570-070eef54f759{fill:url(#aj);}.\38 488cb72-596b-4d61-9b7a-dec0f39481bf{fill:url(#av);}.f4abd840-37fc-47d5-a13e-e127038def50{fill:url(#aq);}.\38 ce6583f-b81f-48ff-aab8-c1708e29efeb{fill:url(#z);}.c2286d4c-d575-46ff-9a62-7211585520f1{fill:url(#ao);}.\37 30dfbd3-58b6-4640-902e-e3f9857a9188{fill:url(#l);}.\35 c4b547e-be47-46a5-8435-44faa7b13d3a{fill:url(#ak);}.\33 de5b352-ec3c-46ea-ab98-46f64fdbdd0e{fill:url(#ba);}.\38 a46add3-a0c2-4b45-86f7-9486ee754781{fill:url(#an);}.db18dd50-3a9a-4085-9be3-56bcf9e53459{fill:url(#ay);}.\31 25a8339-9b32-47d1-83cf-393d5dbf230a{fill:url(#e);}.c14d497d-2ce9-41da-9d05-1e69711ef008{fill:url(#d);}.\30 e04acc8-adce-4bdd-a8f9-1c885c06581c{fill:url(#aa);}.e15bd2a8-76c6-4eda-ac7d-07323cab5944{fill:url(#be);}.ea2cbea8-29cf-48c8-b484-b58318b8b03b{fill:url(#az);}.\36 3f74492-8f56-4e63-8c49-3f0ed1e682b0{fill:url(#am);}.\33 a37e5ff-d059-492f-81d2-20f7ec0eca7c{fill:url(#g);}.d3a698fd-c057-447b-8fd5-2e90ad76bec9{fill:url(#x);}.\32 c99d729-3a3a-4d02-bef2-72fdf169648a{fill:url(#al);}.e2975945-c24a-455c-8c6f-2c0665d2147b{fill:url(#ae);}.\38 a0bbecd-145a-4203-ba62-27b43a3f8342{fill:url(#q);}.\34 da658cf-c6e9-42a3-9476-fa02bc36f357{fill:url(#ax);}.a0009107-7a79-4c22-8ff6-60b5a7d2df68{fill:url(#bb);}.deb24385-1c9b-40dd-90e1-283a633f7166{fill:url(#p);}.\36 34c1286-8b75-416c-8587-95593f46a5ff{fill:url(#bd);}.\31 d82041f-9c0e-46f5-bbab-9773864f7f71{fill:url(#h);}.d5c6e2fe-c4d3-4e56-8cde-37b21cc69f67{fill:url(#ac);}.\34 ec7a847-7b6b-4dbb-8833-5cf4bd3a86c9{fill:url(#t);}.d968e9c6-bd19-4563-8162-1c831f10c712{fill:url(#f);}.d90b4e0f-f1f1-4488-9eae-08d32e2e9cd6{fill:url(#m);}.e5ef61f3-5d7c-475c-8ea2-80e2aedabc80{fill:url(#c);}.\36 27564c0-11dc-4468-92a0-733e02e2c27f{fill:url(#i);}.\33 3d42a89-0715-4269-8229-a3b6a885998a{fill:url(#j);}.ee75718d-a864-47e5-9138-91d24ff8e38e{fill:url(#v);}.\33 5a6b13b-153c-4869-8b1b-1fde50bcffa6{fill:url(#ad);}.cb8764be-99c0-43ca-910b-555b0705e455{fill:url(#af);}.cc27e15c-671d-4821-ac49-316d69f76663{fill:url(#ai);}.\35 fb8ab34-0ed3-4b47-a12a-3e4ec5a1da3d{fill:#fff;}</style>
<linearGradient id="a" x1="509.74" x2="510.56" y1="256.51" y2="256.51" gradientTransform="matrix(1 0 0 -1 0 512)" gradientUnits="userSpaceOnUse">
<stop stop-color="#96a5ed" offset="0"/>
<stop stop-color="#9675ed" offset="1"/>
</linearGradient>
<linearGradient id="s" x1="503.73" x2="505.4" y1="297.95" y2="297.95" gradientTransform="matrix(1 0 0 -1 -1.5 511.1)" xlink:href="#a"/>
<linearGradient id="at" x1="496.73" x2="503.13" y1="319.75" y2="319.75" xlink:href="#a"/>
<linearGradient id="b" x1="492" x2="494.06" y1="348.35" y2="348.35" xlink:href="#a"/>
<linearGradient id="u" x1="493.75" x2="494.39" y1="346.53" y2="346.53" xlink:href="#a"/>
<linearGradient id="y" x1="486.11" x2="489.14" y1="362.2" y2="362.2" xlink:href="#a"/>
<linearGradient id="bf" x1="483.87" x2="485.16" y1="365.95" y2="365.95" xlink:href="#a"/>
<linearGradient id="ah" x1="485.16" x2="487.79" y1="362.35" y2="362.35" xlink:href="#a"/>
<linearGradient id="au" x1="488.77" x2="491.71" y1="353.12" y2="353.12" xlink:href="#a"/>
<linearGradient id="w" x1="495" x2="497.07" y1="329.16" y2="329.16" xlink:href="#a"/>
<linearGradient id="ag" x1="471.97" x2="474.55" y1="388.5" y2="388.5" xlink:href="#a"/>
<linearGradient id="n" x1="469" x2="472.38" y1="391.2" y2="391.2" xlink:href="#a"/>
<linearGradient id="ab" x1="481.49" x2="486.99" y1="364.15" y2="364.15" xlink:href="#a"/>
<linearGradient id="k" x1="458.21" x2="462.31" y1="408.75" y2="408.75" xlink:href="#a"/>
<linearGradient id="r" x1="444.02" x2="451.62" y1="424.06" y2="424.06" xlink:href="#a"/>
<linearGradient id="as" x1="440.19" x2="444.02" y1="430.05" y2="430.05" xlink:href="#a"/>
<linearGradient id="o" x1="461.8" x2="463.78" y1="403.4" y2="403.4" xlink:href="#a"/>
<linearGradient id="ap" x1="459.79" x2="462.54" y1="405.2" y2="405.2" xlink:href="#a"/>
<linearGradient id="ar" x1="463.78" x2="464.1" y1="401.25" y2="401.25" xlink:href="#a"/>
<linearGradient id="aw" x1="472.06" x2="476" y1="383.08" y2="383.08" xlink:href="#a"/>
<linearGradient id="bc" x1="464.97" x2="468.85" y1="395.75" y2="395.75" xlink:href="#a"/>
<linearGradient id="aj" x1="463.11" x2="464.97" y1="399.4" y2="399.4" gradientTransform="matrix(1 0 0 -1 -1.5 511.1)" xlink:href="#a"/>
<linearGradient id="av" x1="440.57" x2="448.03" y1="425.85" y2="425.85" xlink:href="#a"/>
<linearGradient id="aq" x1="454.18" x2="454.56" y1="414.09" y2="414.09" xlink:href="#a"/>
<linearGradient id="z" x1="417.88" x2="418.34" y1="451.1" y2="451.1" xlink:href="#a"/>
<linearGradient id="ao" x1="447.12" x2="451.37" y1="419.77" y2="419.77" xlink:href="#a"/>
<linearGradient id="l" x1="433.84" x2="436.71" y1="436" y2="436" xlink:href="#a"/>
<linearGradient id="ak" x1="453.71" x2="454.06" y1="415.1" y2="415.1" xlink:href="#a"/>
<linearGradient id="ba" x1="451.37" x2="454.18" y1="415.9" y2="415.9" xlink:href="#a"/>
<linearGradient id="an" x1="418.34" x2="428.37" y1="446.3" y2="446.3" xlink:href="#a"/>
<linearGradient id="ay" x1="428.37" x2="440.57" y1="435.8" y2="435.8" xlink:href="#a"/>
<linearGradient id="e" x1="468.18" x2="468.66" y1="387.74" y2="387.74" xlink:href="#a"/>
<linearGradient id="d" x1="464.86" x2="464.98" y1="396.91" y2="396.91" xlink:href="#a"/>
<linearGradient id="aa" x1="464.98" x2="470.66" y1="390.95" y2="390.95" xlink:href="#a"/>
<linearGradient id="be" x1="445.8" x2="452.15" y1="417.2" y2="417.2" xlink:href="#a"/>
<linearGradient id="az" x1="413.74" x2="418.71" y1="453.35" y2="453.35" xlink:href="#a"/>
<linearGradient id="am" x1="405.31" x2="408.2" y1="460.8" y2="460.8" xlink:href="#a"/>
<linearGradient id="g" x1="113.04" x2="120.46" y1="470.45" y2="470.45" xlink:href="#a"/>
<linearGradient id="x" x1="282.34" x2="291.02" y1="508.4" y2="508.4" xlink:href="#a"/>
<linearGradient id="al" x1="31.53" x2="33.1" y1="131.5" y2="131.5" xlink:href="#a"/>
<linearGradient id="ae" x1="272.17" x2="282.34" y1="509.73" y2="509.73" xlink:href="#a"/>
<linearGradient id="q" x1="506.08" x2="506.64" y1="219.1" y2="219.1" xlink:href="#a"/>
<linearGradient id="ax" x1="364.88" x2="366.04" y1="485.74" y2="485.74" xlink:href="#a"/>
<linearGradient id="bb" x1="373.9" x2="374.99" y1="477.82" y2="477.82" xlink:href="#a"/>
<linearGradient id="p" x1="365.37" x2="368.28" y1="484.75" y2="484.75" xlink:href="#a"/>
<linearGradient id="bd" x1="367.96" x2="370.11" y1="483.85" y2="483.85" xlink:href="#a"/>
<linearGradient id="h" x1="361.51" x2="365.37" y1="486.6" y2="486.6" xlink:href="#a"/>
<linearGradient id="ac" x1="1.5" x2="508.4" y1="256.1" y2="256.1" xlink:href="#a"/>
<linearGradient id="t" x1="383.99" x2="388.36" y1="474.55" y2="474.55" xlink:href="#a"/>
<linearGradient id="f" x1="388.36" x2="389.01" y1="473.3" y2="473.3" xlink:href="#a"/>
<linearGradient id="m" x1="392.06" x2="398.52" y1="465.75" y2="465.75" xlink:href="#a"/>
<linearGradient id="c" x1="399.28" x2="402.39" y1="461.85" y2="461.85" xlink:href="#a"/>
<linearGradient id="i" x1="353.35" x2="359.3" y1="489.57" y2="489.57" xlink:href="#a"/>
<linearGradient id="j" x1="366.94" x2="374.08" y1="478.91" y2="478.91" xlink:href="#a"/>
<linearGradient id="v" x1="374.08" x2="378.56" y1="475.9" y2="475.9" xlink:href="#a"/>
<linearGradient id="ad" x1="296.03" x2="303.23" y1="502.9" y2="502.9" xlink:href="#a"/>
<linearGradient id="af" x1="509.31" x2="509.95" y1="243.35" y2="243.35" xlink:href="#a"/>
<linearGradient id="ai" x1="508.5" x2="509.59" y1="253.1" y2="253.1" xlink:href="#a"/>
</defs>
<title>digital</title>
<path class="4c2d7ab6-874f-4779-ba6a-15856ff567d2" transform="translate(-1.5 -.9)" d="m509.8 254.8c0 2.4 0.7 1.5 0.8 1.9-0.3-4-1-1.8-0.8-1.9z"/>
<polygon class="80aee64e-59ae-48ba-8b8d-8af6e6b2448e" points="503.9 215.9 502.2 210.4 503.5 215.3"/>
<path class="da5caf7b-e575-4f1b-ad1e-afcbbedfff52" transform="translate(-1.5 -.9)" d="M501.6,201l1.6,2.6c-.5-1.9-1-4-1.6-6s-1.1-4.2-1.8-6.2c-1.3-4-2.4-7.8-3.1-10.5-.2,3.6,4,12.5,4.8,19Z"/>
<path class="84d3226d-ff2c-4b0c-bc1a-44c1d1bab015" transform="translate(-1.5 -.9)" d="m493.9 165.2c-0.3-0.7-0.7-1.8-1.3-3.5 0 1.3-1.9-3.8 1.5 4.3a4.5 4.5 0 0 1-0.2-0.8z"/>
<path class="025eef0b-c51d-4da2-93ac-babd6afea039" transform="translate(-1.5 -.9)" d="M493.9,165.2c1.4,3.6-.6-2.5,0,0Z"/>
<path class="35f59675-0cb5-4952-93db-27723fe0c67f" transform="translate(-1.5 -.9)" d="M489.1,153.3c-.2-1.1-2-5.2-1.1-3.8-2.4-4.7-2.1-3.6-1.3-.7Z"/>
<path class="2b1dcd91-86e8-4004-a6aa-1566d078e111" transform="translate(-1.5 -.9)" d="m483.9 144.9a17.1 17.1 0 0 1 1.3 2.3 5.49 5.49 0 0 0-1.3-2.3z"/>
<path class="1797aec9-a8fc-4619-b95a-924f9d585bd2" transform="translate(-1.5 -.9)" d="m487.8 152.1-2.6-4.9c0.1 0.8-0.2 1 1.2 2.3-0.6-0.3 0.2 0.5 1.4 2.6z"/>
<path class="c21b946e-0459-41cb-b7f6-da399d9002ac" transform="translate(-1.5 -.9)" d="M490.1,158.6c.1.6-.1.3-1.3-1.9,1.9,4.4,2.9,6.3,2.9,5.9a12.4,12.4,0,0,0-.6-2.2,35.72,35.72,0,0,0-2.2-5.3A24.37,24.37,0,0,1,490.1,158.6Z"/>
<path class="7ca69401-f28a-4a9c-a90a-5223eb743206" transform="translate(-1.5 -.9)" d="M497.1,186.2c-.3-.8-.7-2.5-1.1-4.1s-.8-2.8-1-2.6c.3,1.2.6,2.4.8,3.7Z"/>
<path class="c50c6e29-187f-4b28-a692-b6c726f46d40" transform="translate(-1.5 -.9)" d="m472.1 120.8c-0.4-0.1 0.4 1.8 0.3 2.3a34.57 34.57 0 0 1 2.2 3.1c-0.8-1.9-2.7-5-2.5-5.4z"/>
<path class="f9591a16-3148-464c-8e12-7dbe36befaeb" transform="translate(-1.5 -.9)" d="m472.4 123-3.4-4.5c2.7 4.3 3.3 4.9 3.4 4.5z"/>
<path class="f083fd77-b2ce-4d3d-8ab8-ebfb02e26755" transform="translate(-1.5 -.9)" d="M483.5,146.6l1.1,2,2.3,4c-1.8-3.2-3.5-6.4-5.5-9.5l.8,1.6Z"/>
<path class="9766481a-5e06-4269-aaed-a4fc79485e4b" transform="translate(-1.5 -.9)" d="m462.3 105.3-2-2.1-2.1-2 1.8 1.8c0.8 0.7 1.5 1.5 2.3 2.3z"/>
<path class="3eb9b33a-d45f-42b4-8b7d-cb01aa95160d" transform="translate(-1.5 -.9)" d="m451.4 90.7a78.59 78.59 0 0 0-7.3-7.1 59.53 59.53 0 0 1 7 8.4c1.8 1.4-1.6-3 0.3-1.3z"/>
<path class="c3122718-3177-4d7a-8eff-09bff85cd70e" transform="translate(-1.5 -.9)" d="m440.2 80.3c1.2 1.1 2.4 2.1 3.8 3.3a39 39 0 0 0-3.8-3.3z"/>
<path class="f103a40c-c03d-47a8-b0c3-ef250daeb128" transform="translate(-1.5 -.9)" d="M462.5,108.8a20.28,20.28,0,0,0,1.3,1.8c-.1-.4-.3-1.3-2-4Z"/>
<path class="d0fd92b9-fbd9-47f0-b651-70ca36ff073a" transform="translate(-1.5 -.9)" d="m462.5 108.8c-1.4-2-2.3-3.4-2.8-4 0.4 0.6 1.3 1.8 2.8 4z"/>
<path class="5c0527b9-db7e-4985-910d-75f197b0e343" transform="translate(-1.5 -.9)" d="m464.1 111c-0.1-0.2-0.2-0.3-0.3-0.5 0.1 0.3 0.1 0.4 0.3 0.5z"/>
<path class="71cb78b3-04e0-40ed-8068-3b2b36cabdf0" transform="translate(-1.5 -.9)" d="m473 129.1c1.6 1.8 0-1.7 2.9 2.3-1.9-2.6-5.6-8.3-2.9-2.3z"/>
<path class="c689794e-d4c8-4788-a126-3a5a3ba5fc1e" transform="translate(-1.5 -.9)" d="m468.9 118.8c-1.3-1.7-2.5-3.4-3.9-5.1 1.1 1.6 2.1 3.4 3.1 5.1 0.1-0.2-0.3-1.3 0.8 0z"/>
<polygon class="f4d64351-c6e7-495d-b570-070eef54f759" points="461.6 110.6 463.5 112.8 462.2 111"/>
<path class="8488cb72-596b-4d61-9b7a-dec0f39481bf" transform="translate(-1.5 -.9)" d="m447.3 89.9c0.5 0.2 1.7 1.1-0.7-1.7a39.65 39.65 0 0 1-2.9-2.9c-1-1-2-2.1-3.2-3.2 1.1 1.3 2.3 2.5 3.4 3.9s2.3 2.7 3.4 3.9z"/>
<path class="f4abd840-37fc-47d5-a13e-e127038def50" transform="translate(-1.5 -.9)" d="m454.6 98.1-0.4-0.4c0.1 0.3 0.3 0.5 0.4 0.4z"/>
<path class="8ce6583f-b81f-48ff-aab8-c1708e29efeb" transform="translate(-1.5 -.9)" d="M417.9,60.7c.1.1.2.3.3.4h.2Z"/>
<path class="c2286d4c-d575-46ff-9a62-7211585520f1" transform="translate(-1.5 -.9)" d="m447.6 90.5a25.14 25.14 0 0 0 3.8 4c-1.3-1.4-2.7-2.9-4.1-4.5-0.2-0.1-0.3-0.1 0.3 0.5z"/>
<path class="730dfbd3-58b6-4640-902e-e3f9857a9188" transform="translate(-1.5 -.9)" d="m433.8 74.3c0.9 1 1.9 2.2 2.9 3.4a15.21 15.21 0 0 0-2.9-3.4z"/>
<path class="5c4b547e-be47-46a5-8435-44faa7b13d3a" transform="translate(-1.5 -.9)" d="m453.8 96.9 0.3 0.3c-0.4-0.8-0.4-0.7-0.3-0.3z"/>
<path class="3de5b352-ec3c-46ea-ab98-46f64fdbdd0e" transform="translate(-1.5 -.9)" d="m453.8 96.9c-0.9-1-1.7-1.7-2.4-2.4 1 1.2 2 2.3 2.8 3.2a5.9 5.9 0 0 1-0.4-0.8z"/>
<path class="8a46add3-a0c2-4b45-86f7-9486ee754781" transform="translate(-1.5 -.9)" d="m426.6 68.6 1.8 1.6c-1.9-2-3.2-3.5-5.6-6.2-3.3-2.4-4-2.8-4.4-2.8 3 2.6 6 5.2 8.9 7.9z"/>
<path class="db18dd50-3a9a-4085-9be3-56bcf9e53459" transform="translate(-1.5 -.9)" d="M436.2,77.7c-1.8-.9-6.2-4.6-4.2-1.7,2.6,2.4,3.5,3.3,4.2,3.8A17,17,0,0,1,439,82c-8-8.1,2.5,2.1-2.9-4.1,1.6,1.5,3.1,3,4.4,4.3q-2.1-2.4-3.9-4.5l.2.2h0c.3.4.4.6,0,.1l-.2-.2c0,.1-.2,0-.4-.1-2.2-2.5-.2-.5.5.2h.2c-1.3-1.4-2.8-2.6-4.2-3.9l-4.3-3.8C430,72,432.3,73.9,436.2,77.7Z"/>
<path class="125a8339-9b32-47d1-83cf-393d5dbf230a" transform="translate(-1.5 -.9)" d="m468.7 124.7c-0.1-0.3-0.1-0.3-0.1-0.4-0.5-0.6-0.7-0.8 0.1 0.4z"/>
<path class="c14d497d-2ce9-41da-9d05-1e69711ef008" transform="translate(-1.5 -.9)" d="m465 115.3a0.76 0.76 0 0 0-0.1-0.4c-0.1-0.1-0.1 0.1 0.1 0.4z"/>
<path class="0e04acc8-adce-4bdd-a8f9-1c885c06581c" transform="translate(-1.5 -.9)" d="m469.6 124.4-0.5-0.6a60.25 60.25 0 0 1-4.1-8.4 23 23 0 0 0 1.5 5.2 18.71 18.71 0 0 1 2.5 3.4c1.1 2.1-0.3 0.2-0.4 0.4 1 1.2 3.4 4.5 1 0z"/>
<path class="e15bd2a8-76c6-4eda-ac7d-07323cab5944" transform="translate(-1.5 -.9)" d="M448.5,95.3l.1-.4c3.3,4.2,2.9,3.1,3.5,3.4-2-2.5-4.2-4.7-6.3-7Z"/>
<path class="ea2cbea8-29cf-48c8-b484-b58318b8b03b" transform="translate(-1.5 -.9)" d="m418.7 60c-1.6-1-3.3-1.8-5-2.7l3.5 2.4z"/>
<path class="63f74492-8f56-4e63-8c49-3f0ed1e682b0" transform="translate(-1.5 -.9)" d="m408.2 51.9a26.94 26.94 0 0 0-2.9-1.6l2.1 1.8z"/>
<path class="3a37e5ff-d059-492f-81d2-20f7ec0eca7c" transform="translate(-1.5 -.9)" d="m113.1 43.4 1.4-0.1a42.62 42.62 0 0 1 5.9-3.6c-3.7 1.7-8.1 3.4-7.3 3.7z"/>
<path class="d3a698fd-c057-447b-8fd5-2e90ad76bec9" transform="translate(-1.5 -.9)" d="m291 4.3c-3.5-0.7-6.2-1.2-8.7-1.5 4.2 0.9 7.5 1.9 8.7 1.5z"/>
<path class="2c99d729-3a3a-4d02-bef2-72fdf169648a" transform="translate(-1.5 -.9)" d="m31.5 379.6c1 1.4 1.5 2 1.6 1.9-1-1.5-1.6-2.3-1.6-1.9z"/>
<path class="e2975945-c24a-455c-8c6f-2c0665d2147b" transform="translate(-1.5 -.9)" d="M272.2,1.9c.6.1,1.2.2,1.9.3,2.6.1,5.2.1,8.3.5A42.23,42.23,0,0,0,272.2,1.9Z"/>
<path class="8a0bbecd-145a-4203-ba62-27b43a3f8342" transform="translate(-1.5 -.9)" d="m506.1 295.3c0.2-0.8 0.3-2.3 0.6-4.8-0.2 1.2-0.4 3.1-0.6 4.8z"/>
<path class="4da658cf-c6e9-42a3-9476-fa02bc36f357" transform="translate(-1.5 -.9)" d="M364.9,26c2.4,1.1.4.1,0,0Z"/>
<path class="a0009107-7a79-4c22-8ff6-60b5a7d2df68" transform="translate(-1.5 -.9)" d="m373.9 34.1a1.61 1.61 0 0 1 1.1 0.2c-0.5-0.2-1-0.3-1.1-0.2z"/>
<path class="deb24385-1c9b-40dd-90e1-283a633f7166" transform="translate(-1.5 -.9)" d="m368.3 28.1c-0.8-0.5-1.8-1.1-2.9-1.7 0.4 0.3 1.3 0.8 2.9 1.7z"/>
<path class="634c1286-8b75-416c-8587-95593f46a5ff" transform="translate(-1.5 -.9)" d="m368 27.6c0.8 0.4 1.4 0.8 2 1.1 0.3 0 0.1-0.2-2-1.1z"/>
<path class="1d82041f-9c0e-46f5-bbab-9773864f7f71" transform="translate(-1.5 -.9)" d="m364.9 26c-0.7-0.3-1.7-0.8-3.4-1.5 1.4 0.6 2.6 1.2 3.9 1.8-0.5-0.2-0.7-0.3-0.5-0.3z"/>
<path class="d5c6e2fe-c4d3-4e56-8cde-37b21cc69f67" transform="translate(-1.5 -.9)" d="M507.7,263.8l.1,4.7c-.5-3.1-1.2-1-2.1,1.8-.1.3-.2.5-.3.8.3-4.7.4-9.5.4-14.3A250.78,250.78,0,0,0,427.1,74.2l.1-.4c-2.1-2-3.9-3.4-2.9-2.2-1.8-1.7-3.7-3.3-5.5-4.9,3.5,2.2,2.2-1.5-.6-5.4-.3.1-.4.2-5.3-3.1,1.5,1.4,9.4,9,5.3,6.2-3-2.4-4.2-3.4-5-4.2s-1.1-1.3-2.5-2.6c1,1.3-1.1,0-3.4-1.3a13.2,13.2,0,0,0-4.2-2c-3.1-2.3-6.3-4.5-9.6-6.7l-.7-1.4-2.2-.6,2.5,1.7a242.93,242.93,0,0,0-29.8-16.9c.3,0,.3-.1-.2-.4l-4-1.7c-3.3-2.3,7.8,2.5,3-.1,2.8.9,5.6,2.2,8.8,3.5a52.38,52.38,0,0,1,4.8,2.3c1.6.9,3.3,1.9,5,3l.8,1.6c0-.3-4.4-3.2-6.5-4.1,1.6.6,4.2,2.5,6.8,4.3,1.3.9,2.7,1.8,3.9,2.5a14,14,0,0,0,3.3,1.6c-1.5-1.2-3-2.5-4.5-3.6,2.7,1.2,5.6,2.8,8.7,4.4,1.5.8,3.1,1.6,4.6,2.6s3,2.1,4.5,3.2c-2.2-2.7-1.4-.9-5.1-4.8,3,3.6-15.8-10.2-10.5-5a41.7,41.7,0,0,0-6-4.6c-2.1-1.4-4.4-2.8-7.3-4.9,0,.4,1.9,1.7-3.5-1.3a3.82,3.82,0,0,1-1.3-.4l-.4-.2c.1.1.2.1.3.2-.3-.1-.3-.1.1.1a22.24,22.24,0,0,1,2.6,1.9c-1.5-.3-4.4-1.7-7.4-3s-6-2.5-7.6-3c-3.3-1.6,1.5.3-.1-.9-1.6-.5-3.2-1-4.8-1.4-.2-.8-8.6-4.7-.4-1.9l-7.2-2.9c-2.1-1-4.6-2-7.1-2.9a55.88,55.88,0,0,0-6.8-2.1c-3.5-1.2-9.1-1.8-5.9-1.4-2-.5-3.9-1-5.9-1.4l-6-1.1V8.1c-5.8-1.5-12-2.2-18.3-3.2-6.4-.6-12.9-1.6-19.7-2.7-2-.1-4.1-.1-6.5-.2s-5.1-.1-8.5-.3L257.7,1c-2.6,0-6.5,0-10-.1s-6.7,0-7.8.5a29.73,29.73,0,0,0-6.5-.3c-1.4,0-2.9.1-4.5.2s-3.2.4-4.9.6c-3.3.5-6.8.9-10,1.5s-6.1,1.2-8.3,1.5L205.5,6l-2.3.4-2.3.5-4.6,1.2c-1.6.4-3.2.9-4.9,1.3s-3.4,1.1-5.3,1.7l.7.6c-3.1,1.2-7.3,2.1-11.9,3.6q-3.45,1.05-7.2,2.1c-2.4.8-4.9,1.8-7.4,2.8a25.26,25.26,0,0,1,4.9-2,76.52,76.52,0,0,0-9.2,3.1c-3,1.3-6,2.9-8.9,4.4s-5.7,3.2-8.5,4.7-5.5,2.8-8.1,4a41,41,0,0,1-6,3.5c.2-.1.4-.3.6-.4-.3.1-.6.4-1,.6a30.21,30.21,0,0,0-3.6,1.8c1.1-.5,2.1-1,3.1-1.4-1.9,1.1-4.6,3.1-7.3,5l-1.6.1a2.09,2.09,0,0,1-.6.4c-2.9,1.5-2,1.7-.2,1.3a36.26,36.26,0,0,0-3.3,2.8c-1.4.2-3.1,1.6-4.9,3-.9.7-1.8,1.4-2.7,2a8.73,8.73,0,0,1-2.7,1.4c-.7.9-3.8,3.6-6.9,6.3a45.93,45.93,0,0,0-5.7,6.1A43.36,43.36,0,0,0,80.1,74l-2.1.2-2.4,3.2-2.3,3.3c-3.8,3.1-5.4,4.3-2.6.3-1.8,2.3-3.1,3.9-4.1,5.1s-1.7,2.2-2.3,3c-1.3,1.7-2.5,3.2-5.2,7.3l-.2-.8c-2.2,2.8-5,7.7-6.7,9.1a80.86,80.86,0,0,0-6.1,7.6c-.6.9-1.3,1.8-2,2.8s-1.3,2-2,3.1c-1.4,2.2-2.9,4.4-4.4,6.8-5.8,9.7-11.8,21.1-16.3,30.2,1.7-1.4.5.6-.9,3.2s-2.9,5.8-2.4,6.5c-.8.9-2.1,3.5-1.3.3a26.8,26.8,0,0,1-1.3,3.4c-.4,1.1-.7,2.1-1.1,3.1-.7,1.9-1.3,3.7-1.9,5.3a36.77,36.77,0,0,0-2.4,9.9c-.8,1,0-2.3-.6-1.4a15.14,15.14,0,0,1-1.1,4.3c-.5,1,.1-1.6.3-3.2-.7,2.6-1.2,4.6-1.5,6.2a17.17,17.17,0,0,0-.2,3.7,3.73,3.73,0,0,0,1.2,2.9,38.94,38.94,0,0,0-1.8,6.2,24.2,24.2,0,0,0-.2,5.4c-.7,1.7-1.7,4.7-.7-1.7-.2.9-.5,2.7-1,5-.2,1.1-.5,2.4-.7,3.6s-.4,2.6-.5,3.9c-.7,5.2-1.2,10-.6,10.2a31.79,31.79,0,0,0-.4,6.1c-.2,2.1-.3,3.7-.4,5s-.1,2.5-.2,3.6c-.1,2.2-.1,4.4-.2,8.5l.2-2.2c1.1,3.2.3,6.7.6,13.3l-.1-.2a55.86,55.86,0,0,0,.1,7.6c.1,1.5.2,2.3.3,3.1s.2,1.6.3,3.1c0,.8.1,1.7.1,2.9s.2,2.7.3,4.5l.7-.9c.9.6,1.1,3.8,1.2,8A75.73,75.73,0,0,0,7,307.8l-.1-3.1a43.64,43.64,0,0,1,.9,8.9c.1,3.3,0,6.8.6,9.1.2,1-.7-1.5-1.1-2.9,2.4,12.2,1.4,1.3,4.1,10.1,0,1.8-2-1.7-.3,4.3.3,1.5,2.1,5.7,4.2,10.5,1.1,2.4,2.3,4.9,3.3,7.3.5,1.2,1,2.4,1.4,3.6a25.58,25.58,0,0,1,1.2,3.2c-.4-1.9-.8-3.7,1.3,0,2.7,5.9,6.2,16.8,10.3,21.3.3.8.4,1.1.3,1.2.7,1.1,1.6,2.4,2.6,4s2,3.2,3.2,4.8a73.08,73.08,0,0,0,5.5,7.1c0,1.4,1.3,3.5,3.1,6.1a90.18,90.18,0,0,0,6.5,8.3c2.4,2.7,4.6,5.4,6.2,7.3s2.6,3.3,2.1,3.7c1.7,1.9,3.4,3.9,5.1,5.8l5.4,5.5-.5-.1c1.7,1.8,3.1,3.3,4.4,4.5s2.4,2.2,3.4,3a42.93,42.93,0,0,0,4.9,3.5c1.6,1.6.2.7,0,.7,5.3,4.9,8.2,7.6,11.2,9.7a93.36,93.36,0,0,0,11.1,7l.6,1.4c2.8,1.7,16.5,12.9,29.6,18.5a4.35,4.35,0,0,1-1.6-.4c7.3,3.3,15.6,7.9,23.2,11.2,1.9.8,3.7,1.6,5.5,2.3.9.3,1.7.7,2.5,1a21.72,21.72,0,0,0,2.4.7c3,.9,5.5,1.4,7.1,1.1,3.4,1,6.8,1.5,10.2,2.3-12.9-3.9,2.3-.7-2.9-2.7a47.87,47.87,0,0,1,7.6,2.6c1.8.7,2.2,1.2-1,.4l-.9-.4c-2.8,1,16.2,4.5,15.7,5.3a311.32,311.32,0,0,0,39.2,5c3.2.1,6.5.3,9.7.4s6.4,0,9.6-.1c1.6,0,3.2,0,4.8-.1l4.8-.3c3.2-.3,6.3-.3,9.4-.8-1-.3-2-.5-3-.9,2.9-.2,5.8-.7,8.7-1,2.3,0,3.2.5-3,1.3a21.89,21.89,0,0,0,6.4-.9,16.36,16.36,0,0,0,4-1.4c12.1-1.7-4.5,2.2-.8,1.6l5-1-1.2.1c2-.6,3-1,4.5-1.5.7-.2,1.6-.4,2.7-.7s2.5-.6,4.3-1.1c4.7-.8,2.5.2,4.4-.2,0,.1.6,0,2.8-.6,3.6-.9,7.1-1.9,10.7-2.9l-4.5.3c2.3-.9,4.8-1.6,6-2s1.3-.6-1.3-.4c3.8-.3,13.6-3.3,22.7-7.1,2.3-.9,4.5-1.9,6.6-2.9s4.1-1.9,5.9-2.7c3.5-1.7,6.1-3.1,7.2-3.5,1.4-.9,2.9-1.8,4.4-2.7s2.9-1.9,4.5-2.8c3.1-1.9,6.4-3.6,9.9-5.9-1.8,1-3.4.7,2.6-3-.3.8.3.8,1.5.4a34.53,34.53,0,0,0,4.6-2.6c1.8-1.2,3.8-2.6,5.8-3.8a27.92,27.92,0,0,1,2.8-1.6,17.09,17.09,0,0,1,2.3-1.2c-2.4,1.2,1.6-2,5.3-5a36.27,36.27,0,0,0,4.3-4c.8-.9.7-1.1-1.1-.1,4.6-3.8.8.4,4.6-2.2,10.2-10,23.2-21.4,33.9-35.7-.1-.4-2.2,1.7-.2-1.6,2.4-2.1,4.5-4.4,6.7-6.7a12.17,12.17,0,0,0,1.5-3.5,5.43,5.43,0,0,1,1.1-1.9,20.26,20.26,0,0,1,2.3-2.9c-.7.6-1.7,1.6-.5-.5,10-14.1,18-30.1,24.3-46.7s11-33.8,15.1-51c-1.4,4.6-.9,1.5-.3-2.1-.5,2.3-.7-.2-1.1.2,1-4.8,2-9.6,2.9-14.5-.4-1.4-.2-5.3.1-9.1a49.74,49.74,0,0,0,.2-5.2A12.85,12.85,0,0,0,507.7,263.8Zm-96-203.3c1,.7,2.1,1.5,3.2,2.4.8.7,1.6,1.5,2.4,2.3-2.2-1.9-4.5-3.8-6.8-5.6ZM337.9,15.7h-.2C333.7,14,335.1,14.6,337.9,15.7ZM294.2,7.2c2.5.2,5.3.5,8.2.9,4.7.6,5.6,1.2,5.6,1.4s-1,.3-.1.4a78,78,0,0,0,9.9,2c2.4.5,4.3.7,6,.9a43.29,43.29,0,0,1,5.4.9,60.69,60.69,0,0,1,8,2.8c5.3,2.7-.3,1.7.7,2.7-3.7-1.1-6.4-2.2-8.9-3.1s-4.7-1.7-7.2-2.4l6.1,2.2a67.16,67.16,0,0,1-10-2.6c.5.2,1.1.5,1.9.8a250.22,250.22,0,0,0-34.9-6.7c.8-.1,1.7-.1,2.7-.2A48.15,48.15,0,0,1,294.2,7.2ZM244.4,5.1c-.3.2.5.5,1.1.6-2.4.1-4.8.2-7.2.4A33.7,33.7,0,0,1,244.4,5.1Zm-50.9,5.7c.5-.1,4-.5,7.7-1.1a26.6,26.6,0,0,1,2.8-.3c.9-.1,1.8-.1,2.7-.2a27.85,27.85,0,0,1,3.9-.1,1.69,1.69,0,0,1,.9.2c-3,.5-6,1.1-9,1.7l-.4-1.1-.8,1.4c-3,.6-5.9,1.3-8.9,2.1A2.4,2.4,0,0,1,193.5,10.8ZM149.2,26.2l2.1-.4c2.5-1.3,5-2.7,7.5-3.9-1.8,1.3-5,3.7-8.5,6.2-4.3,2-8.5,4-12.6,6.2A66.4,66.4,0,0,1,149.2,26.2ZM87.5,66.7l-.3.6C87,67.2,86.3,67.8,87.5,66.7ZM73.9,82.4c-1.4,1.5-2.9,3-4.3,4.5,1.1-1.8,2.1-3.7,3.2-5.5C72.8,82.1,73.3,82.3,73.9,82.4ZM7.5,206.9c.2-1.7.6-3.4.9-5.2.5-1.2.6-.1.6,1.7.1-.7.1-1.4.2-1.9.4-1.2.7-1.8.9-1.9-.4,1.6-.7,3.3-1.1,4.9v-1.2a16.59,16.59,0,0,0-.2,2.4c-.2.8-.3,1.7-.5,2.5-.6,1.5-1.1,2.9-1.4,3.8ZM315.6,503.6l-1.7.2C317.6,502.7,316.6,503.1,315.6,503.6Z"/>
<path class="4ec7a847-7b6b-4dbb-8833-5cf4bd3a86c9" transform="translate(-1.5 -.9)" d="M388.3,38.9c0-.2-.5-.7.1-.5-1.4-.8-2.9-1.6-4.4-2.4A27.66,27.66,0,0,1,388.3,38.9Z"/>
<path class="d968e9c6-bd19-4563-8162-1c831f10c712" transform="translate(-1.5 -.9)" d="m388.4 38.5a2.09 2.09 0 0 1 0.6 0.4c-0.3-0.3-0.5-0.4-0.6-0.4z"/>
<path class="d90b4e0f-f1f1-4488-9eae-08d32e2e9cd6" transform="translate(-1.5 -.9)" d="M397,46.7c-1.2-.8-3.1-1.8-4.9-2.8,0,.4.8,1,2,1.8.6.4,1.3.8,2.1,1.3s1.6,1,2.4,1.6c-.2-.1-.4-.3-.6-.4C398.7,48.1,398.1,47.5,397,46.7Z"/>
<path class="e5ef61f3-5d7c-475c-8ea2-80e2aedabc80" transform="translate(-1.5 -.9)" d="m399.3 49.1 3 2.1c0.6 0-1.2-0.9-3-2.1z"/>
<path class="627564c0-11dc-4468-92a0-733e02e2c27f" transform="translate(-1.5 -.9)" d="m359.1 23.4c1.1 0.1-1.9-1-3.9-1.6a4 4 0 0 0-1.8-0.3 33 33 0 0 0 3.4 1.5c1.6 0.9 1.4-0.3 2.3 0.4z"/>
<path class="33d42a89-0715-4269-8229-a3b6a885998a" transform="translate(-1.5 -.9)" d="m366.9 31.3 5.5 3.1c0-0.2 0.7 0.1 1.6 0.5-3.4-1.8-7.1-3.8-7.1-3.6z"/>
<path class="ee75718d-a864-47e5-9138-91d24ff8e38e" transform="translate(-1.5 -.9)" d="m374.1 34.9c1.8 1 3.4 1.9 4.5 2.4-1-0.5-3-1.7-4.5-2.4z"/>
<path class="35a6b13b-153c-4869-8b1b-1fde50bcffa6" transform="translate(-1.5 -.9)" d="m299.8 9.5c1.7 0.1 4.2 0.4 3.2 0l-6.8-1c-0.7 0.1 1.1 0.6 3.6 1z"/>
<path class="cb8764be-99c0-43ca-910b-555b0705e455" transform="translate(-1.5 -.9)" d="M509.4,271.3c.3-1.8.4-3.5.6-5.3l-.6,3.4Z"/>
<path class="cc27e15c-671d-4821-ac49-316d69f76663" transform="translate(-1.5 -.9)" d="M509.6,259.9l-.9-3.2a30.27,30.27,0,0,1-.2,4.4Z"/>
<path class="5fb8ab34-0ed3-4b47-a12a-3e4ec5a1da3d" transform="translate(-1.5 -.9)" d="M409.49,350.76l-31.51-40a7.37,7.37,0,0,0,.42-2.45V170.7a21.62,21.62,0,0,0-21.6-21.6H155.3a21.62,21.62,0,0,0-21.6,21.6V308.3a7.35,7.35,0,0,0,.39,2.36l-31.58,40.1a7.5,7.5,0,0,0,5.89,12.14H403.6a7.5,7.5,0,0,0,5.89-12.14ZM155.3,164.1H356.8a6.61,6.61,0,0,1,6.6,6.6V304.6H148.7V170.7A6.61,6.61,0,0,1,155.3,164.1ZM123.85,347.9l22.29-28.3H365.86l22.29,28.3Z"/>
</svg>
