<?xml version="1.0" encoding="UTF-8"?>
<svg data-name="Layer 1" viewBox="0 0 514.33 516.62" xmlns="http://www.w3.org/2000/svg" xmlns:xlink="http://www.w3.org/1999/xlink">
<defs>
<style>.\35 4265d78-f7ac-46d0-85e2-aaf3a54d1bb7{fill:url(#a);}.\36 394119d-0750-4f9c-9726-36ad3937adef{fill:url(#l);}.\37 113e1ab-6ca9-47d9-8b9c-67b66c9fc747{fill:url(#az);}.b85548fc-b6fc-448f-9e42-5cd11bce98b1{fill:url(#bd);}.\32 3993b62-1578-4cb8-86b9-55d58a4e3185{fill:url(#h);}.b4d8dc6e-fe7e-4abd-a326-920f88e7f0d6{fill:url(#o);}.\32 2371424-fad0-42fb-964d-ac4dcadb83de{fill:url(#n);}.\38 b0bf0ae-e0a9-4bab-af30-f22a609cb8bd{fill:url(#bb);}.\32 5fa8a91-17ff-4cad-a8f2-e133cb31bdfa{fill:url(#c);}.e3cfa6c7-38fb-40ba-8070-76b64433dd50{fill:url(#ak);}.\39 d2c9c6b-4b52-4e0d-a839-b2f65869c078{fill:url(#ac);}.\30 daee9ee-b704-4965-abed-fb833db28800{fill:url(#f);}.\36 f39ae6f-6211-4321-917c-399c44905604{fill:url(#at);}.\37 92c4d9f-b804-4980-ba71-224795a605da{fill:url(#ai);}.\37 1ed0767-998e-4b51-a8f9-0803a8528290{fill:url(#af);}.\36 a92518f-3c31-447b-bb8a-0987d626c112{fill:url(#x);}.ff76c10f-70d8-4b86-9836-d31e57b8f83b{fill:url(#z);}.aa69f087-36f4-4d6b-9600-967bad8f4628{fill:url(#ay);}.\33 c662ddd-9886-4646-9793-2da2347a08fb{fill:url(#b);}.efe5ec73-1f3d-4387-b862-ea08b025487a{fill:url(#ad);}.\32 002a250-8629-44ed-a95e-fbbefea0278a{fill:url(#bc);}.\33 58f0ee9-7d06-4e91-8f63-0610836c4035{fill:url(#q);}.\38 8fbb34d-016b-4873-9ff0-7c44cedd8ad4{fill:url(#an);}.dbdd3bc8-2349-4c2b-a90f-68baaf8412c0{fill:url(#k);}.\38 1f3e119-daba-4729-b5bc-c9f3da58e4ed{fill:url(#au);}.\34 09aab9b-11a4-4876-aa7f-12ddc7a06167{fill:url(#ba);}.\37 d84fa3a-e57c-495a-b13e-732c1e707b7d{fill:url(#bf);}.a1c94352-ab8c-446a-8d14-404ef2b73260{fill:url(#ab);}.\32 1fa22de-4e00-42b4-b811-dd8eb87e8a47{fill:url(#v);}.\30 086e66b-fc24-4971-a963-255de5faaafb{fill:url(#r);}.cbf13f53-73d8-44a8-bddb-ece0805eb152{fill:url(#j);}.\33 cdbf13e-a4d4-4635-b85a-e99d9f82d9c1{fill:url(#aa);}.\39 3c36af9-2d67-4517-a044-1b63c0bd0d33{fill:url(#ah);}.a9c00ad4-d1e1-48fe-b6bf-7d4d791bc6c3{fill:url(#e);}.bca272c9-2374-41ea-b92a-50f30a27b9d2{fill:url(#g);}.\30 8258f1c-1a45-45ef-a377-287927c7634e{fill:url(#d);}.\35 9c40813-a8df-4477-849e-0611656333fb{fill:url(#u);}.a376b88e-007f-47f9-a1d1-8f4a36ab167d{fill:url(#as);}.\33 f806c92-9acb-4541-a16b-a76e6ed8e953{fill:url(#al);}.f45034e9-dd7b-4513-b328-fe3a80141d91{fill:url(#aw);}.\39 24d18dd-9e0c-454e-ad8f-f323525a0bc3{fill:url(#ao);}.\36 45d626a-ffd6-49c0-934e-b9b7c5c17d9f{fill:url(#ae);}.c5902bf2-61b5-4a03-b710-2742e9431b7f{fill:url(#y);}.\33 df93803-89f3-4152-a0dc-845cc387bf2b{fill:url(#m);}.\34 251c58b-b1b9-4ff0-a043-18bb8e7cc3a1{fill:url(#t);}.a81a3106-5b25-4228-81ee-89c715089b4c{fill:url(#aj);}.\37 ed4eccf-222c-4411-9a93-b4d50060abe3{fill:url(#p);}.\37 e035ebf-2d91-4efa-8661-68503167d5e0{fill:url(#ar);}.\32 414d58f-12ee-499b-b3be-e52d83b0d932{fill:url(#w);}.\36 bf90234-47b7-4e61-b74d-2b7c871d2c5b{fill:url(#be);}.d58baeee-142f-41a8-8b30-a01fea4ac62d{fill:url(#aq);}.c4b0c74f-a9e1-42dc-b521-b9054e9a763f{fill:url(#ag);}.\39 fa5397b-12d1-4466-82d8-8f928f5f8055{fill:url(#s);}.\30 0b9a505-f023-41d4-bdf2-2ea0067519e3{fill:url(#av);}.\35 5018100-4447-41a4-8091-57ae8258676b{fill:url(#ax);}.\32 2769862-2189-4250-930c-e902b302e3c2{fill:url(#ap);}.\38 5b95b9f-4242-47fe-8481-aedd27c6d3b0{fill:url(#i);}.aa134464-fd23-468c-8d10-8cdf6e962e47{fill:url(#am);}.e503e3fa-41d5-4adc-843c-4e85786ac2d3{fill:#fff;}</style>
<linearGradient id="a" x1="511.58" x2="513.16" y1="256.41" y2="256.41" gradientUnits="userSpaceOnUse">
<stop stop-color="#4ad0ff" offset="0"/>
<stop stop-color="#4aabff" offset="1"/>
</linearGradient>
<linearGradient id="l" x1="504.81" x2="507.15" y1="217.04" y2="217.04" xlink:href="#a"/>
<linearGradient id="az" x1="496.83" x2="503.87" y1="192.71" y2="192.71" xlink:href="#a"/>
<linearGradient id="bd" x1="494.23" x2="496.5" y1="163.18" y2="163.18" xlink:href="#a"/>
<linearGradient id="h" x1="496.38" x2="497.02" y1="164.91" y2="164.91" xlink:href="#a"/>
<linearGradient id="o" x1="488.65" x2="491.73" y1="149.01" y2="149.01" xlink:href="#a"/>
<linearGradient id="n" x1="485.28" x2="486.74" y1="145.64" y2="145.64" xlink:href="#a"/>
<linearGradient id="bb" x1="486.62" x2="489.72" y1="149.18" y2="149.18" xlink:href="#a"/>
<linearGradient id="c" x1="489.82" x2="493.32" y1="158.55" y2="158.55" xlink:href="#a"/>
<linearGradient id="ak" x1="494.14" x2="496.26" y1="183.6" y2="183.6" xlink:href="#a"/>
<linearGradient id="ac" x1="474.05" x2="476.49" y1="122.25" y2="122.25" xlink:href="#a"/>
<linearGradient id="f" x1="470.28" x2="474.05" y1="120.1" y2="120.1" xlink:href="#a"/>
<linearGradient id="at" x1="481.73" x2="488.08" y1="147.86" y2="147.86" xlink:href="#a"/>
<linearGradient id="ai" x1="460.25" x2="465.09" y1="101.44" y2="101.44" xlink:href="#a"/>
<linearGradient id="af" x1="446.14" x2="454.25" y1="85.84" y2="85.84" xlink:href="#a"/>
<linearGradient id="x" x1="441.86" x2="446.14" y1="79.93" y2="79.93" xlink:href="#a"/>
<linearGradient id="z" x1="463.65" x2="465.1" y1="107.47" y2="107.47" xlink:href="#a"/>
<linearGradient id="ay" x1="461.09" x2="463.83" y1="105.93" y2="105.93" xlink:href="#a"/>
<linearGradient id="b" x1="465.1" x2="465.42" y1="109.93" y2="109.93" xlink:href="#a"/>
<linearGradient id="ad" x1="471.92" x2="476.75" y1="128.95" y2="128.95" xlink:href="#a"/>
<linearGradient id="bc" x1="465.59" x2="469.91" y1="115.98" y2="115.98" xlink:href="#a"/>
<linearGradient id="q" x1="464.7" x2="466.76" y1="114.64" y2="114.64" xlink:href="#a"/>
<linearGradient id="an" x1="441.52" x2="449.23" y1="85.1" y2="85.1" xlink:href="#a"/>
<linearGradient id="k" x1="455.4" x2="455.82" y1="96.88" y2="96.88" xlink:href="#a"/>
<linearGradient id="au" x1="418.56" x2="419.03" y1="59.62" y2="59.62" xlink:href="#a"/>
<linearGradient id="ba" x1="447.91" x2="452.38" y1="91.29" y2="91.29" xlink:href="#a"/>
<linearGradient id="bf" x1="435.19" x2="437.84" y1="74.42" y2="74.42" xlink:href="#a"/>
<linearGradient id="ab" x1="455.14" x2="455.44" y1="95.68" y2="95.68" xlink:href="#a"/>
<linearGradient id="v" x1="452.38" x2="455.4" y1="95.1" y2="95.1" xlink:href="#a"/>
<linearGradient id="r" x1="419.03" x2="429.1" y1="64.36" y2="64.36" xlink:href="#a"/>
<linearGradient id="j" x1="429.1" x2="441.52" y1="75.25" y2="75.25" xlink:href="#a"/>
<linearGradient id="aa" x1="466.49" x2="467" y1="125.5" y2="125.5" xlink:href="#a"/>
<linearGradient id="ah" x1="464.69" x2="469.53" y1="121.52" y2="121.52" xlink:href="#a"/>
<linearGradient id="e" x1="464.83" x2="464.94" y1="115.24" y2="115.24" xlink:href="#a"/>
<linearGradient id="g" x1="445.2" x2="451.83" y1="95.08" y2="95.08" xlink:href="#a"/>
<linearGradient id="d" x1="414.41" x2="420.09" y1="57" y2="57" xlink:href="#a"/>
<linearGradient id="u" x1="406.14" x2="409.3" y1="49.42" y2="49.42" xlink:href="#a"/>
<linearGradient id="as" x1="109.46" x2="117.51" y1="39.69" y2="39.69" xlink:href="#a"/>
<linearGradient id="al" x1="281.45" x2="290.19" y1="1.42" y2="1.42" xlink:href="#a"/>
<linearGradient id="aw" x1="27.83" x2="29.78" y1="382.63" y2="382.63" xlink:href="#a"/>
<linearGradient id="ao" x1="271.14" x2="281.45" y1="-.3" y2="-.3" xlink:href="#a"/>
<linearGradient id="ae" x1="507.12" x2="507.63" y1="294.21" y2="294.21" xlink:href="#a"/>
<linearGradient id="y" x1="365.17" x2="366.37" y1="23.97" y2="23.97" xlink:href="#a"/>
<linearGradient id="m" x1="372.87" x2="374.12" y1="34.53" y2="34.53" xlink:href="#a"/>
<linearGradient id="t" x1="365.62" x2="368.49" y1="25.14" y2="25.14" xlink:href="#a"/>
<linearGradient id="aj" x1="368.3" x2="370.49" y1="25.86" y2="25.86" xlink:href="#a"/>
<linearGradient id="p" x1="361.74" x2="365.62" y1="23.22" y2="23.22" xlink:href="#a"/>
<linearGradient id="ar" x1="-1.16" x2="508.83" y1="256" y2="256" xlink:href="#a"/>
<linearGradient id="w" x1="384.63" x2="389.23" y1="35.34" y2="35.34" xlink:href="#a"/>
<linearGradient id="be" x1="389.23" x2="389.83" y1="36.26" y2="36.26" xlink:href="#a"/>
<linearGradient id="aq" x1="391.52" x2="397.86" y1="46.15" y2="46.15" xlink:href="#a"/>
<linearGradient id="ag" x1="398.63" x2="401.84" y1="50.18" y2="50.18" xlink:href="#a"/>
<linearGradient id="s" x1="353.29" x2="359.59" y1="20.38" y2="20.38" xlink:href="#a"/>
<linearGradient id="av" x1="365.59" x2="372.75" y1="34.2" y2="34.2" xlink:href="#a"/>
<linearGradient id="ax" x1="372.75" x2="377.3" y1="37.15" y2="37.15" xlink:href="#a"/>
<linearGradient id="ap" x1="294.7" x2="301.94" y1="10.35" y2="10.35" xlink:href="#a"/>
<linearGradient id="i" x1="510.98" x2="512.18" y1="269.76" y2="269.76" xlink:href="#a"/>
<linearGradient id="am" x1="509.17" x2="511.31" y1="259.85" y2="259.85" xlink:href="#a"/>
</defs>
<title>one-sol</title>
<path class="54265d78-f7ac-46d0-85e2-aaf3a54d1bb7" transform="translate(1.16 2.31)" d="m511.64 255.73c-0.06 2.39 1.27 1.53 1.52 1.89-0.4-4.02-1.87-1.78-1.52-1.89z"/>
<polygon class="6394119d-0750-4f9c-9726-36ad3937adef" points="506.49 219.17 507.15 219.76 504.81 214.32"/>
<path class="7113e1ab-6ca9-47d9-8b9c-67b66c9fc747" transform="translate(1.16 2.31)" d="m498.66 189.91a43.35 43.35 0 0 1 3 10.57l-0.28 1.16 2.48 2.47c-0.52-1.92-1.13-4-1.76-6.05s-1.23-4.2-2-6.2a76 76 0 0 1-3.1-10.55c-0.58 1.99 0.38 5.13 1.66 8.6z"/>
<path class="b85548fc-b6fc-448f-9e42-5cd11bce98b1" transform="translate(1.16 2.31)" d="m496.4 164.67c-0.31-0.75-0.71-1.78-1.34-3.55-0.39 1.47-2.29-3.71 1.44 4.41a8.44 8.44 0 0 1-0.1-0.86z"/>
<path class="23993b62-1578-4cb8-86b9-55d58a4e3185" transform="translate(1.16 2.31)" d="M496.4,164.67c1.5,3.63-.24-2.66,0,0Z"/>
<path class="b4d8dc6e-fe7e-4abd-a326-920f88e7f0d6" transform="translate(1.16 2.31)" d="M491.73,152.58c0-1.2-1.75-5.46-.7-4.06-2.59-4.67-2.61-3.42-2.16-.32Z"/>
<path class="22371424-fad0-42fb-964d-ac4dcadb83de" transform="translate(1.16 2.31)" d="m485.28 144.52c0.51 0.73 1 1.48 1.46 2.24 0.01-0.52-0.19-1.2-1.46-2.24z"/>
<path class="8b0bf0ae-e0a9-4bab-af30-f22a609cb8bd" transform="translate(1.16 2.31)" d="M488,149c-.81-.13.25.6,1.68,2.6l-3-4.85C486.71,147.6,486.06,148,488,149Z"/>
<path class="25fa8a91-17ff-4cad-a8f2-e133cb31bdfa" transform="translate(1.16 2.31)" d="m491.56 158.36c0 0.71-0.33 0.45-1.74-1.74 2 4.44 3.19 6.23 3.45 5.74a5.07 5.07 0 0 0-0.4-2.36 31.65 31.65 0 0 0-2.16-5.34 22.23 22.23 0 0 1 0.85 3.7z"/>
<path class="e3cfa6c7-38fb-40ba-8070-76b64433dd50" transform="translate(1.16 2.31)" d="M496.26,187a20,20,0,0,1-1.08-4.07c-.35-1.55-.75-2.84-1-2.62.19,1.26.38,2.51.49,3.78Z"/>
<path class="9d2c9c6b-4b52-4e0d-a839-b2f65869c078" transform="translate(1.16 2.31)" d="m474.56 119.36c-0.59 0-0.18 2.16-0.51 2.81 0.87 1 1.65 2 2.44 3-0.63-1.93-2.42-5.17-1.93-5.81z"/>
<path class="0daee9ee-b704-4965-abed-fb833db28800" transform="translate(1.16 2.31)" d="m474.05 122.17-3.77-4.33c2.64 4.32 3.48 4.88 3.77 4.33z"/>
<path class="6f39ae6f-6211-4321-917c-399c44905604" transform="translate(1.16 2.31)" d="M484,146.7l1.35,1.91,2.72,3.85c-2.07-3.12-4.08-6.23-6.35-9.19l.83,1.57Z"/>
<path class="792c4d9f-b804-4980-ba71-224795a605da" transform="translate(1.16 2.31)" d="m465.09 103.24-2.37-1.85-2.47-1.75 2 1.64c0.98 0.63 1.9 1.3 2.84 1.96z"/>
<path class="71ed0767-998e-4b51-a8f9-0803a8528290" transform="translate(1.16 2.31)" d="m453.08 90.07c2.3 1.22-0.94-3.53 1.17-2a46.89 46.89 0 0 0-8.11-6.69 34.26 34.26 0 0 1 6.94 8.69z"/>
<path class="6a92518f-3c31-447b-bb8a-0987d626c112" transform="translate(1.16 2.31)" d="m441.86 78.45c1.27 1 2.71 1.93 4.28 3a29.31 29.31 0 0 0-4.28-3z"/>
<path class="ff76c10f-70d8-4b86-9836-d31e57b8f83b" transform="translate(1.16 2.31)" d="M463.82,107.87l1.28,1.83c0-.53.14-1.66-1.45-4.46Z"/>
<path class="aa69f087-36f4-4d6b-9600-967bad8f4628" transform="translate(1.16 2.31)" d="M463.83,108v-.09l-2.73-4Z"/>
<path class="3c662ddd-9886-4646-9793-2da2347a08fb" transform="translate(1.16 2.31)" d="m465.42 110.16c-0.12-0.17-0.21-0.29-0.32-0.46 0.01 0.3 0.05 0.38 0.32 0.46z"/>
<path class="efe5ec73-1f3d-4387-b862-ea08b025487a" transform="translate(1.16 2.31)" d="m472.59 129.59c2 1.57 0.67-2.07 4.16 1.66-2.33-2.5-6.44-7.99-4.16-1.66z"/>
<path class="2002a250-8629-44ed-a95e-fbbefea0278a" transform="translate(1.16 2.31)" d="m469.91 118.25c-1.45-1.62-2.82-3.29-4.32-4.86 1.07 1.69 2 3.46 3 5.18 0.25-0.29 0.11-1.5 1.32-0.32z"/>
<polygon class="358f0ee9-7d06-4e91-8f63-0610836c4035" points="464.7 113.57 466.76 115.7 465.57 113.83"/>
<path class="88fbb34d-016b-4873-9ff0-7c44cedd8ad4" transform="translate(1.16 2.31)" d="M448.15,89c.64.07,2.21.69-.25-2.08a25.13,25.13,0,0,1-3.11-2.72c-1.05-1-2.13-2-3.27-3.18,1.07,1.35,2.25,2.64,3.33,4S447.05,87.76,448.15,89Z"/>
<path class="dbdd3bc8-2349-4c2b-a90f-68baaf8412c0" transform="translate(1.16 2.31)" d="m455.82 97.05-0.42-0.41c0.13 0.36 0.27 0.6 0.42 0.41z"/>
<path class="81f3e119-daba-4729-b5bc-c9f3da58e4ed" transform="translate(1.16 2.31)" d="M418.56,59.35l.23.53a1.75,1.75,0,0,1,.24-.11Z"/>
<path class="409aab9b-11a4-4876-aa7f-12ddc7a06167" transform="translate(1.16 2.31)" d="m448.33 89.64a13.29 13.29 0 0 0 4.05 3.91c-1.38-1.37-2.78-2.86-4.23-4.51-0.29-0.04-0.41 0.02 0.18 0.6z"/>
<path class="7d84fa3a-e57c-495a-b13e-732c1e707b7d" transform="translate(1.16 2.31)" d="m435.19 72.56c0.8 1.12 1.7 2.39 2.65 3.71-0.57-1.27-2.04-3.65-2.65-3.71z"/>
<path class="a1c94352-ab8c-446a-8d14-404ef2b73260" transform="translate(1.16 2.31)" d="M455.16,95.71c.09.09.19.17.28.27C455.15,95.13,455.1,95.3,455.16,95.71Z"/>
<path class="21fa22de-4e00-42b4-b811-dd8eb87e8a47" transform="translate(1.16 2.31)" d="m455.4 96.64a4 4 0 0 1-0.24-0.93 24.6 24.6 0 0 0-2.78-2.16c1.06 1.16 2.07 2.22 3.02 3.09z"/>
<path class="0086e66b-fc24-4971-a963-255de5faaafb" transform="translate(1.16 2.31)" d="m427.23 67.41 1.87 1.59a66.19 66.19 0 0 1-5.1-7c-3.5-2.2-4.44-2.39-4.93-2.25 3 2.7 6 5.3 8.93 8.08z"/>
<path class="cbf13f53-73d8-44a8-bddb-ece0805eb152" transform="translate(1.16 2.31)" d="m437 76.61c-2.26-0.46-7-4-5.42-0.45 2.63 2.37 3.59 3.17 4.49 3.53a10.57 10.57 0 0 1 3.22 1.82c-8.19-8.09 2.85 1.86-2.34-4.72 1.74 1.48 3.2 2.91 4.58 4.27q-2-2.44-3.68-4.79l0.12 0.26c0.22 0.48 0.26 0.68-0.06 0.2a1.24 1.24 0 0 1-0.19-0.16 1.3 1.3 0 0 1-0.73 0c-2.12-2.62-0.11-0.63 0.73 0h0.25c-1.4-1.34-2.9-2.58-4.39-3.82l-4.48-3.75c1.62 1.84 3.95 3.84 7.9 7.61z"/>
<path class="3cdbf13e-a4d4-4635-b85a-e99d9f82d9c1" transform="translate(1.16 2.31)" d="m466.92 125.94c-0.08-0.36 0-0.4 0.08-0.47-0.54-0.53-0.78-0.7-0.08 0.47z"/>
<path class="93c36af9-2d67-4517-a044-1b63c0bd0d33" transform="translate(1.16 2.31)" d="m468.75 125.08-0.6-0.58a44.7 44.7 0 0 1-3.28-9 16.19 16.19 0 0 0 0.26 6.1 9 9 0 0 1 2.77 3.2c0.9 2.18-0.57 0.34-0.9 0.69 1.2 1.12 3.84 4.25 1.75-0.41z"/>
<path class="a9c00ad4-d1e1-48fe-b6bf-7d4d791bc6c3" transform="translate(1.16 2.31)" d="m464.87 115.48c0-0.15 0-0.3 0.07-0.46-0.13-0.12-0.14 0.07-0.07 0.46z"/>
<path class="bca272c9-2374-41ea-b92a-50f30a27b9d2" transform="translate(1.16 2.31)" d="M447.44,96l.4-.65c3.22,4.33,3.12,2.92,4,3.08-2.09-2.4-4.39-4.61-6.63-6.86Z"/>
<path class="08258f1c-1a45-45ef-a377-287927c7634e" transform="translate(1.16 2.31)" d="M420.09,57.81c-1.84-.73-3.8-1.28-5.68-1.91l3.76,2.2Z"/>
<path class="59c40813-a8df-4477-849e-0611656333fb" transform="translate(1.16 2.31)" d="M409.3,49.71c-1-.47-2.11-.88-3.16-1.33l2,2.07Z"/>
<path class="a376b88e-007f-47f9-a1d1-8f4a36ab167d" transform="translate(1.16 2.31)" d="m109.65 41 1.85 0.48a27.82 27.82 0 0 1 6-3.6c-4.1 1.22-9.07 2.2-7.85 3.12z"/>
<path class="3f806c92-9acb-4541-a16b-a76e6ed8e953" transform="translate(1.16 2.31)" d="m290.19 2.24a69.72 69.72 0 0 0-8.74-2c4.2 1.38 7.45 3.01 8.74 2z"/>
<path class="f45034e9-dd7b-4513-b328-fe3a80141d91" transform="translate(1.16 2.31)" d="m27.83 381.85c1.09 1.38 1.7 1.88 2 1.68-1.15-1.43-1.89-2.17-2-1.68z"/>
<path class="924d18dd-9e0c-454e-ad8f-f323525a0bc3" transform="translate(1.16 2.31)" d="M281.45.28a21.13,21.13,0,0,0-10.31-.86c.62.19,1.24.3,1.87.47A51.23,51.23,0,0,1,281.45.28Z"/>
<path class="645d626a-ffd6-49c0-934e-b9b7c5c17d9f" transform="translate(1.16 2.31)" d="m507.12 296.62a28.73 28.73 0 0 0 0.51-4.82c-0.06 1.2-0.3 3.05-0.51 4.82z"/>
<path class="c5902bf2-61b5-4a03-b710-2742e9431b7f" transform="translate(1.16 2.31)" d="M365.17,23.73c2.45,1.08.46,0,0,0Z"/>
<path class="3df93803-89f3-4152-a0dc-845cc387bf2b" transform="translate(1.16 2.31)" d="m372.87 34.64a1.75 1.75 0 0 1 1.25-0.13c-0.57-0.11-1.04-0.13-1.25 0.13z"/>
<path class="4251c58b-b1b9-4ff0-a043-18bb8e7cc3a1" transform="translate(1.16 2.31)" d="m368.49 26.1a33.93 33.93 0 0 0-2.87-1.92c0.45 0.34 1.32 0.94 2.87 1.92z"/>
<path class="a81a3106-5b25-4228-81ee-89c715089b4c" transform="translate(1.16 2.31)" d="m368.3 25.26 2 1.19c0.43-0.06 0.23-0.32-2-1.19z"/>
<path class="7ed4eccf-222c-4411-9a93-b4d50060abe3" transform="translate(1.16 2.31)" d="m365.17 23.73-3.43-1.47c1.41 0.61 2.68 1.26 3.88 1.92-0.43-0.3-0.62-0.47-0.45-0.45z"/>
<path class="7e035ebf-2d91-4efa-8661-68503167d5e0" transform="translate(1.16 2.31)" d="M508.4,273a35.41,35.41,0,0,0,.09-5.29c-.1-1.49-.33-2.61-.83-3l.25,4.68c-1.14-3.16-2.49-1-4.05,1.7-.16.25-.31.52-.47.78q.41-7.08.41-14.28a249.66,249.66,0,0,0-78.57-182.1l.11.08.34-.68c-2.19-2-4.07-3.23-3.09-1.86q-2.85-2.61-5.77-5.13c4.21,2.07,4.17-3.17,2-8.05-.52.34-.77.62-5.9-2.41,1.3,1.71,8.94,9.63,4.45,7.28-3.11-2.31-4.31-3.34-5-4.23a24.75,24.75,0,0,0-2.13-3c.76,1.61-1.54.54-4-.55-1.87-.87-3.94-1.61-4.81-1.28q-4.69-3.44-9.53-6.66l-.29-2.09-2.57-.1,2.71,2.09a250.84,250.84,0,0,0-30-17.09c.33-.06.38-.25-.06-.67l-4-1.56c-3.06-2.92,8.25,1.6,3.52-1.25a88.11,88.11,0,0,1,9.14,2.82,52.42,52.42,0,0,1,5,2.09,49.27,49.27,0,0,1,5,3.12l.35,2.49c.14-.58-4.08-3.72-6.39-4.32,1.71.45,4.12,2.63,6.65,4.61a32.8,32.8,0,0,0,3.83,2.63,6.76,6.76,0,0,0,3.59,1.15c-1.38-1.41-2.74-2.89-4.2-4.21,2.83,1,6,2.24,9.25,3.62a42.19,42.19,0,0,1,4.86,2.41A35.71,35.71,0,0,1,402.66,48c-1.63-3.55-1.49-.81-4.54-5.73,2.29,4.82-16-10.35-11.36-3.87A19.21,19.21,0,0,0,381.13,33a53.65,53.65,0,0,1-7.05-5.64c-.11.68,1.66,2.26-3.76-.88a8,8,0,0,1-1.48-.11l-.35-.24.27.23c-.29,0-.32,0,.1.08a9.57,9.57,0,0,1,2.38,2.34c-1.73,0-4.74-1.24-7.81-2.38a80.88,80.88,0,0,0-7.82-2.61c-3.21-1.79,1.7-.05.15-1.52-1.66-.34-3.33-.65-5-.87.12-1.52-8.23-5.84.2-3.43L343.64,15a45,45,0,0,0-7-3.3,33.51,33.51,0,0,0-6.94-2c-3.5-1.33-9.47-1-6.05-1.23-2-.41-4-.86-6.06-1.23l-6.1-.94,0-.38C305.54,4.32,299.23,4,292.85,3.1A121.19,121.19,0,0,1,273-.11c-2.06,0-4.14.06-6.56,0a80.53,80.53,0,0,1-8.6-.31L256.53-1.7c-2.63.08-6.58-.07-10.18-.2s-6.81-.16-7.9.64a16.2,16.2,0,0,0-6.65-1c-1.42,0-3,.05-4.58.15s-3.29.4-5,.65C218.83-1,215.3-.46,212.1.23S206,1.49,203.63,1.75l0,1.68-2.34.41-2.32.57c-1.54.4-3.1.83-4.69,1.29l-4.93,1.5c-1.69.57-3.43,1.26-5.29,1.94l.86,1.27c-3.09,1.53-7.36,2.32-12,3.6-2.35.59-4.83,1.19-7.36,1.87s-5,1.66-7.51,2.67c.47-.78,3.06-1.65,5-2a37.82,37.82,0,0,0-9.54,2.64,89.14,89.14,0,0,0-8.83,4.74c-2.9,1.62-5.59,3.54-8.35,5.09a50.62,50.62,0,0,1-8.32,3.82,18.46,18.46,0,0,1-6.1,3.49,3.22,3.22,0,0,0,.59-.43c-.27.14-.65.35-1,.58a39.1,39.1,0,0,0-3.84,1.45c1.21-.36,2.33-.76,3.29-1.13A75.41,75.41,0,0,0,113.55,42l-2-.54-.62.45c-3.08,1.3-1.8,2,.31,2.07a22,22,0,0,0-3.07,3.25c-1.79-.27-3.44,1.17-5.2,2.65A19.91,19.91,0,0,1,100.17,52a6,6,0,0,1-3.06,1c-.49,1.21-3.61,4-6.56,6.84-2.41,2.56-4.66,5.17-5.13,6.88A28.08,28.08,0,0,0,77.8,74l-2.5-.36-2,3.72-1.81,3.82c-4.2,2.66-6.14,3.68-3.89-.89-1.6,2.53-2.77,4.24-3.69,5.57S62.41,88.1,61.79,89a53,53,0,0,0-4.66,7.87l-.69-1.19C54.28,98.5,52.15,104,50,105c-1.67,1.22-3.91,3.85-6.6,7.31-.66.87-1.39,1.78-2.07,2.76s-1.37,2-2.08,3.12c-1.42,2.16-2.92,4.47-4.48,6.85-5.88,9.78-11.93,21.2-17,30.19,2.55-1,1.14.92-.5,3.46s-3.48,5.66-2.27,6.57c-1.27.78-2.79,3.27-2.29-.11-.38,1.27-.78,2.43-1.18,3.52s-.72,2.15-1.08,3.12c-.72,2-1.44,3.69-2.08,5.34a22.46,22.46,0,0,0-1.93,10.17c-1.19.91-.64-2.53-1.44-1.64,0,.86-.17,3.42-1,4.34s-.3-1.68-.22-3.4a35.92,35.92,0,0,0-1.21,6.32A11.27,11.27,0,0,0,3,196.81a5.49,5.49,0,0,0,3,3.32,23.55,23.55,0,0,0-2.22,6.19,15.25,15.25,0,0,0,.44,5.58c-1.15,1.68-2.58,4.62-1.71-1.94-.21.91-.61,2.75-1.11,5-.25,1.13-.51,2.37-.78,3.64s-.38,2.62-.57,3.92c-.7,5.22-1.1,10.06,0,10.35C-.57,234-.5,238-.34,239c-.19,2.07-.35,3.67-.47,5s-.14,2.48-.2,3.6c-.09,2.24-.15,4.47-.15,8.55l.39-2.26c2.34,3.24.55,6.75,1,13.31L0,267.07a44.66,44.66,0,0,0-.26,7.62,19.85,19.85,0,0,0,.39,3.14,17.28,17.28,0,0,1,.35,3.1c0,.76,0,1.71,0,2.93s0,2.72,0,4.6l1.44-1c1.74.49,1.67,3.77,1.45,8-.07,4.22-.13,9.44,1.27,13.56l.31-3.23c.91,2.21.57,5.61,0,9.13s-1.34,7.17-.82,9.52c0,1.08-.93-1.46-1.48-2.84,1.48,12.67,2.4,1.07,5.38,9.9-.54,2-3.36-1.32-1.66,4.79.09,1.62,2.38,5.73,4.8,10.43,1.31,2.32,2.64,4.8,3.72,7.24a36.45,36.45,0,0,1,1.4,3.63,21.47,21.47,0,0,1,1,3.38c0-2.07,0-4.09,2.36-.42a37.23,37.23,0,0,1,2,5.31c.31,1,.63,2,1,3.09s.76,2.07,1.13,3.11c1.59,4.13,3.28,8.17,6,10.07.22.84.18,1.23,0,1.36.78,1,1.75,2.38,2.8,3.88s2.16,3.16,3.4,4.66c2.4,3,4.74,5.81,6.15,6.68-.53,1.75.59,4.07,2.34,6.71a58.27,58.27,0,0,0,6.76,8.14c2.54,2.62,4.9,5.17,6.55,7.11s2.4,3.48,1.44,4.26c1.76,1.92,3.44,3.91,5.24,5.77l5.47,5.54-.64.06a42.6,42.6,0,0,0,4.49,4.52,41.8,41.8,0,0,0,3.6,2.82,28.47,28.47,0,0,0,5.48,3c1.5,1.74-.07,1-.38,1.06,5.16,5.11,8,8,11.12,10A64.94,64.94,0,0,0,105.37,464l.1,2a18.35,18.35,0,0,1,4,2.81c1.81,1.5,4.2,3.26,6.84,5.29,1.32,1,2.72,2,4.2,3.09s3.07,2,4.67,2.91,3.25,1.86,4.91,2.71a42.7,42.7,0,0,0,5.07,2.14c-.21.09-.61.23-1.73-.08,7.54,2.91,15.72,8,23.31,11.71,1.89.91,3.72,1.77,5.47,2.51.87.37,1.72.72,2.54,1s1.65.51,2.43.7c3.11.79,5.72.93,7.56,0,3.46.75,7,1.1,10.51,1.63-12.92-4.14,2.64-1.88-2.45-4.33a28.47,28.47,0,0,1,7.48,2.94c1.77.95,2.07,1.7-1.12,1l-.91-.56c-3.16,2.52,16.11,5,15.37,6.81a348.37,348.37,0,0,0,39.44,5.36l9.78.56c3.25.09,6.49.06,9.72.08,1.61,0,3.23,0,4.83,0l4.8-.26c3.19-.23,6.38-.29,9.53-.71-1.06-.67-2.1-1.31-3.14-2,2.91-.23,5.81-.62,8.72-.92,2.35.25,3.33,1.44-2.93,2.14,1.72.46,4.32-.16,6.47-1a10.16,10.16,0,0,0,3.9-2.15c12.27-1.21-4.28,3.57-.57,3l5.05-1.08L298,511.2c2-.84,3-1.53,4.45-2.16a21.23,21.23,0,0,1,2.7-.93c1.11-.35,2.5-.71,4.34-1.11,4.75-.61,2.72.87,4.58.54,0,.16.67.1,2.84-.59,3.61-.87,7.19-1.87,10.79-2.81l-4.8-.58a57.94,57.94,0,0,1,6-2.29c1.24-.54,1.26-.76-1.49-1.09,4,.47,14-2.43,23.18-6.24,2.34-.86,4.56-2,6.68-2.92l5.92-2.71a66.84,66.84,0,0,1,7.34-3.35c1.37-1.09,2.77-2.09,4.22-3s2.87-2,4.4-2.94c3-1.93,6.38-3.7,9.9-6-2,.8-4.1-.33,2.06-4,0,1.26.81,1.55,2.06,1.26a18,18,0,0,0,4.85-2.31c1.88-1.13,3.95-2.46,6-3.55a28.25,28.25,0,0,1,3-1.43,10.69,10.69,0,0,1,2.63-.88c-2.69.8,1.3-2.5,4.91-5.64a27.35,27.35,0,0,0,4.15-4.19c.7-1,.46-1.4-1.56-.62,4.77-3.67,1.32,1,5.46-1.24,1.21-1.35,2.57-2.62,3.87-4s2.68-2.72,4.11-4.07L435,438.3l4.47-4.3c1.51-1.45,3.1-2.88,4.6-4.41l4.47-4.73A100.14,100.14,0,0,0,457,414.61c-.28-.57-2.81,1.24-1.13-2.28,2.74-1.83,5.24-3.89,7.86-5.9.92-1.52.71-2.65.95-3.92a5.32,5.32,0,0,1,.87-2.06,12.5,12.5,0,0,1,2.57-2.77c-.89.51-2.22,1.24-1.1-.84,10.68-13.82,18.47-30.1,24.67-46.83s10.95-34,16.36-51.15c-1.94,4.58-1.48,1.38-.88-2.24-.67,2.31-1.38-.27-2.22.08,1.33-4.77,2.75-9.57,3.93-14.44C507.87,280.81,508.13,276.85,508.4,273ZM410.05,61.92a21.85,21.85,0,0,1,3.23,2.38,23.53,23.53,0,0,1,2.4,2.67c-2.36-2-4.75-4-7.18-5.91C409,61.3,409.51,61.58,410.05,61.92Zm-3.27-2.25a0,0,0,0,1,0,0l-.26-.2ZM337.61,13.85h-.22C333.48,11.89,334.86,12.61,337.61,13.85ZM293,7.55c2.53,0,5.36,0,8.37.25,4.78.47,5.67,1.29,5.62,1.72s-1.07.77-.23.77a56,56,0,0,0,10,1.78,46.68,46.68,0,0,0,6.18.25,27.26,27.26,0,0,1,5.61.38,32.07,32.07,0,0,1,8,3c5,3.54-.89,3.35-.06,5a44,44,0,0,1-8.84-3.28,51.3,51.3,0,0,0-7.09-2.78l5.95,2.55a32.94,32.94,0,0,1-10.1-2.34,12.9,12.9,0,0,0,2.11,1,248.22,248.22,0,0,0-35.14-6.77,23.53,23.53,0,0,1,2.92-.76A41.94,41.94,0,0,1,293,7.55ZM243.16,6.13c-.26.45.54,1,1.21,1.33q-3.69.13-7.37.37A23.56,23.56,0,0,1,243.16,6.13ZM192,10.46c.48,0,4.08-.25,7.92-.39,1,0,1.93-.08,2.88-.08l2.75.1a29.05,29.05,0,0,1,3.94.37,1.88,1.88,0,0,1,1,.52q-4.53.78-9,1.73l-.69-2.35L200.2,13c-3,.64-5.91,1.32-8.83,2.07C190.87,13.2,191,11.45,192,10.46ZM147.37,25.83l2.37.09c2.41-1.53,4.81-3.11,7.32-4.47-1.66,1.83-4.53,5.06-7.72,8.46q-6.34,2.89-12.49,6.15C139.48,32.48,142.91,28.45,147.37,25.83ZM85.42,66.75a1.93,1.93,0,0,0-.08.8C85,67.36,84.22,67.82,85.42,66.75ZM73.23,83.89c-1.46,1.52-2.91,3-4.33,4.61.71-2.18,1.45-4.36,2.25-6.52C71.3,82.86,72.2,83.38,73.23,83.89ZM6.11,207.8c.11-1.75.39-3.48.58-5.23.62-1.16,1.07,0,1.53,1.88,0-.73,0-1.42-.05-2,.59-1.3,1.07-1.81,1.45-1.78-.38,1.66-.74,3.32-1.09,5-.11-.44-.21-.86-.31-1.25,0,.77,0,1.61,0,2.48-.17.79-.31,1.59-.47,2.38-.87,1.5-1.62,2.81-2.06,3.74Zm308.82,299h-1.79C316.86,505.43,315.89,506.07,314.93,506.76Z"/>
<path class="2414d58f-12ee-499b-b3be-e52d83b0d932" transform="translate(1.16 2.31)" d="M388.86,36.89c.07-.32-.36-1.08.37-.79-1.5-.82-3.06-1.55-4.6-2.31A15.73,15.73,0,0,1,388.86,36.89Z"/>
<path class="6bf90234-47b7-4e61-b74d-2b7c871d2c5b" transform="translate(1.16 2.31)" d="m389.23 36.1 0.6 0.31a4.38 4.38 0 0 0-0.6-0.31z"/>
<path class="d58baeee-142f-41a8-8b30-a01fea4ac62d" transform="translate(1.16 2.31)" d="M396.65,46.27a38,38,0,0,0-5.11-2.59c-.17.67.56,1.39,1.76,2.19.61.4,1.33.82,2.11,1.26l2.45,1.5c-.2-.13-.39-.26-.58-.41C398.28,47.81,397.83,47.11,396.65,46.27Z"/>
<path class="c4b0c74f-a9e1-42dc-b521-b9054e9a763f" transform="translate(1.16 2.31)" d="m401.65 51.24c0.81-0.33-1.13-1-3-2.11a34.55 34.55 0 0 1 3 2.11z"/>
<path class="9fa5397b-12d1-4466-82d8-8f928f5f8055" transform="translate(1.16 2.31)" d="m356.73 21.09c1.61 1.1 1.77-1 2.55-0.1 1.32-0.32-1.82-1.18-4-1.52-1.09-0.18-2-0.16-2 0.06s0.97 0.67 3.45 1.56z"/>
<path class="00b9a505-f023-41d4-bdf2-2ea0067519e3" transform="translate(1.16 2.31)" d="M365.59,32.47l5.4,3.26c0-.28.83-.06,1.76.28C369.32,34.2,365.68,32,365.59,32.47Z"/>
<path class="55018100-4447-41a4-8091-57ae8258676b" transform="translate(1.16 2.31)" d="m377.3 38.28a42.7 42.7 0 0 0-4.55-2.28 28.68 28.68 0 0 0 4.55 2.28z"/>
<path class="22769862-2189-4250-930c-e902b302e3c2" transform="translate(1.16 2.31)" d="m298.44 11c1.68-0.09 4.24 0.15 3.3-0.57l-6.85-0.75c-0.78 0.44 1 1.1 3.55 1.32z"/>
<path class="85b95b9f-4242-47fe-8481-aedd27c6d3b0" transform="translate(1.16 2.31)" d="m511.28 272.43c0.4-1.77 0.6-3.56 0.9-5.35l-1.2 3.43c0.13 0.64 0.2 1.28 0.3 1.92z"/>
<path class="aa134464-fd23-468c-8d10-8cdf6e962e47" transform="translate(1.16 2.31)" d="M511.31,260.85l-1.83-3.23c.07,1.21.19,3.55-.31,4.46Z"/>
<path class="e503e3fa-41d5-4adc-843c-4e85786ac2d3" transform="translate(1.16 2.31)" d="M397.08,344.05V266.8a7.5,7.5,0,0,0-7.5-7.5H307.07a47.24,47.24,0,0,0-39-39V148.65a7.5,7.5,0,0,0-7.5-7.5H186.49a21.42,21.42,0,1,0-.56,15H253v64.11a47.26,47.26,0,0,0-39,39H124a7.5,7.5,0,0,0-7.5,7.5v29.72a21.44,21.44,0,1,0,15,1.17V274.3H214a47.13,47.13,0,0,0,93.06,0h75v69.75a21.43,21.43,0,1,0,15,0ZM260.54,298.93a32.14,32.14,0,1,1,32.14-32.13A32.17,32.17,0,0,1,260.54,298.93Z"/>
</svg>
