<?xml version="1.0" encoding="UTF-8"?>
<svg data-name="Layer 1" viewBox="0 0 508.4 509.3" xmlns="http://www.w3.org/2000/svg" xmlns:xlink="http://www.w3.org/1999/xlink">
<defs>
<style>.f06b289b-632f-480c-8b06-adca51e071a7{fill:url(#a);}.c393f10c-9cbb-4b29-91b8-96d9f9794db4{fill:url(#aj);}.\36 a34dff3-9742-45cf-a77e-c9452ddf3289{fill:url(#be);}.\30 f9bdddb-6e8b-4ea2-9dc6-336272dfbae7{fill:url(#al);}.\34 d3e134c-fb8a-4bca-9533-40069d6268fa{fill:url(#ax);}.\38 671713a-2633-40aa-84a0-3bc59500dfa4{fill:url(#az);}.f6e37d52-7d49-4620-9aa8-9b2a5b98b4a9{fill:url(#ad);}.f988f772-8d4f-460b-9945-d723404bd86a{fill:url(#o);}.\35 47c465f-357c-4962-a29a-45680c2760b6{fill:url(#ac);}.\34 0f2132d-0cce-4903-9932-43101ce858c3{fill:url(#d);}.\33 1b5434a-7df6-4f76-a5d5-9d1508ece701{fill:url(#y);}.bd00f2b5-dc5a-4b61-90dd-51c6039e8ff2{fill:url(#at);}.\32 1d1ea1b-808a-4d68-86c2-5042a3a83ec3{fill:url(#s);}.\35 21fe77a-b41e-415b-a29d-90c45f8ad64a{fill:url(#af);}.\30 eeac92a-e502-4efa-a7bd-422d04b9749c{fill:url(#i);}.caa7cf8e-d1f3-4e92-b127-82e7342176e3{fill:url(#u);}.\32 f0e77cc-0a86-4075-a010-e53250eb71b3{fill:url(#j);}.ca326d06-2306-4425-9f9e-306999e2371e{fill:url(#aw);}.\31 3f9abe5-1814-438d-9f3a-5bf13724d336{fill:url(#t);}.bd3ba029-0d0d-43ea-858e-9e2e572fee86{fill:url(#ak);}.c49fea4b-0785-4131-8ef6-ccb0510b3573{fill:url(#ba);}.\35 fae764d-68ba-4d79-9c5e-da9d573c5c8c{fill:url(#g);}.e83d79af-12d7-43a6-a3af-2007a5ca77ee{fill:url(#e);}.ba8f4d5d-0d32-40cb-9807-c839a1248785{fill:url(#q);}.\36 dfe190c-2483-459a-9682-a4c4b0dc9b1c{fill:url(#ay);}.\33 3597531-e41a-4678-ae3f-73ad6697dfed{fill:url(#k);}.a3224032-2cc5-4ecc-bbbf-7a734eeb5117{fill:url(#x);}.cf923220-a7e7-4674-8345-eeaea87cc168{fill:url(#w);}.b24657b6-9964-4eac-b51f-4d621d98dbf2{fill:url(#f);}.\39 dde8492-fab7-4b86-9985-d7b3a26053f8{fill:url(#ar);}.cfc96999-4353-432e-aebe-a2a1f44be55a{fill:url(#n);}.\30 a3ae4f2-4155-4855-8e4b-b8317bfaa783{fill:url(#ag);}.\33 6ffa69f-82e2-43bd-9d29-c5cfb92a450a{fill:url(#v);}.af91d5cc-aeb9-4896-b0d2-ca54fad14e64{fill:url(#au);}.\37 7e4097d-2e3e-4dbe-8721-cb4fe9c4f009{fill:url(#bb);}.\31 1a0372b-9613-4722-ad87-f375c6c81b2e{fill:url(#h);}.\37 9c5cc8a-c7bb-4f96-8d40-57baa2e76663{fill:url(#l);}.\31 302b572-a88d-4be7-acb8-8790ad63225f{fill:url(#am);}.\32 7264940-f1bc-4514-909f-9a52552a3486{fill:url(#ao);}.\30 4e4988e-73cb-4e7d-aa3f-014ab10e39f3{fill:url(#bc);}.\32 abc3f15-04c4-44fd-ab70-d7caa2ccd74f{fill:url(#b);}.\31 b084ba0-e6d3-4041-99c4-c6e83817bf5b{fill:url(#bf);}.fd1a64a8-b924-4602-a80f-8949e4fc1cb9{fill:url(#ae);}.\32 40559ce-c4a7-4eb6-aac5-4a04bba3456b{fill:url(#ap);}.\38 2969a59-94cd-4277-bac7-894318f2a6b1{fill:url(#ah);}.b937323f-c597-46fc-b9c0-12f6224a1950{fill:url(#p);}.c2dd9b4e-019f-42b6-9aa0-d98087d9a55d{fill:url(#aa);}.\32 14c6ebf-1ff2-425a-8810-4593855ff6c0{fill:url(#z);}.b153e8f6-c43c-4c36-a0a6-64072c428c32{fill:url(#av);}.\31 fc539aa-34d8-4854-8440-9713982d7725{fill:url(#ab);}.\31 30bc65c-0467-496c-9ed1-712d46a0c9d3{fill:url(#ai);}.e6f740af-59ad-43c9-a94a-454262e9a0e9{fill:url(#r);}.bc02bb5a-4375-4971-a48c-b48f37b8d9ca{fill:url(#an);}.\30 46c398a-212d-4825-b202-da2e04d768b3{fill:url(#aq);}.b588bcdb-2c69-4b4b-9ae7-84a8f36ed2fb{fill:url(#c);}.\35 11190dd-b85c-4f52-a8ec-bde67f8190bf{fill:url(#m);}.\31 491862f-3c3c-4081-9b85-0f7887c78aed{fill:url(#bd);}.c32a2140-c704-432c-8949-301ee80ad9d4{fill:url(#as);}.\33 8c6077f-49ec-4b74-af4a-17f1aeedbc01{fill:#fff;}</style>
<linearGradient id="a" x1="509.32" x2="510.14" y1="256.51" y2="256.51" gradientTransform="matrix(1 0 0 -1 0 512)" gradientUnits="userSpaceOnUse">
<stop stop-color="#f7686a" offset="0"/>
<stop stop-color="#ff7d4a" offset="1"/>
</linearGradient>
<linearGradient id="aj" x1="503.32" x2="504.99" y1="297.85" y2="297.85" gradientTransform="matrix(1 0 0 -1 -1.8 510.6)" xlink:href="#a"/>
<linearGradient id="be" x1="496.33" x2="502.72" y1="319.75" y2="319.75" xlink:href="#a"/>
<linearGradient id="al" x1="491.61" x2="493.66" y1="348.25" y2="348.25" xlink:href="#a"/>
<linearGradient id="ax" x1="493.36" x2="494" y1="346.4" y2="346.4" xlink:href="#a"/>
<linearGradient id="az" x1="485.73" x2="488.75" y1="362" y2="362" xlink:href="#a"/>
<linearGradient id="ad" x1="483.49" x2="484.79" y1="365.75" y2="365.75" xlink:href="#a"/>
<linearGradient id="o" x1="484.79" x2="487.41" y1="362.15" y2="362.15" xlink:href="#a"/>
<linearGradient id="ac" x1="488.39" x2="491.32" y1="352.97" y2="352.97" xlink:href="#a"/>
<linearGradient id="d" x1="494.61" x2="496.68" y1="329.01" y2="329.01" xlink:href="#a"/>
<linearGradient id="y" x1="471.62" x2="474.19" y1="388.3" y2="388.3" xlink:href="#a"/>
<linearGradient id="at" x1="468.65" x2="472.02" y1="390.9" y2="390.9" xlink:href="#a"/>
<linearGradient id="s" x1="481.12" x2="486.6" y1="363.95" y2="363.95" xlink:href="#a"/>
<linearGradient id="af" x1="457.88" x2="461.97" y1="408.55" y2="408.55" xlink:href="#a"/>
<linearGradient id="i" x1="443.71" x2="451.29" y1="423.84" y2="423.84" xlink:href="#a"/>
<linearGradient id="u" x1="439.88" x2="443.71" y1="429.8" y2="429.8" xlink:href="#a"/>
<linearGradient id="j" x1="461.46" x2="463.44" y1="403.2" y2="403.2" xlink:href="#a"/>
<linearGradient id="aw" x1="459.45" x2="462.2" y1="404.9" y2="404.9" xlink:href="#a"/>
<linearGradient id="t" x1="463.44" x2="463.76" y1="400.95" y2="400.95" xlink:href="#a"/>
<linearGradient id="ak" x1="471.7" x2="475.64" y1="382.88" y2="382.88" xlink:href="#a"/>
<linearGradient id="ba" x1="464.63" x2="468.5" y1="395.55" y2="395.55" xlink:href="#a"/>
<linearGradient id="g" x1="462.77" x2="464.63" y1="399.15" y2="399.15" gradientTransform="matrix(1 0 0 -1 -1.8 510.6)" xlink:href="#a"/>
<linearGradient id="e" x1="440.27" x2="447.71" y1="425.55" y2="425.55" xlink:href="#a"/>
<linearGradient id="q" x1="453.85" x2="454.24" y1="413.79" y2="413.79" xlink:href="#a"/>
<linearGradient id="ay" x1="417.61" x2="418.08" y1="450.7" y2="450.7" xlink:href="#a"/>
<linearGradient id="k" x1="446.81" x2="451.05" y1="419.57" y2="419.57" xlink:href="#a"/>
<linearGradient id="x" x1="433.55" x2="436.42" y1="435.7" y2="435.7" xlink:href="#a"/>
<linearGradient id="w" x1="453.39" x2="453.73" y1="414.86" y2="414.86" xlink:href="#a"/>
<linearGradient id="f" x1="451.05" x2="453.85" y1="415.7" y2="415.7" xlink:href="#a"/>
<linearGradient id="ar" x1="418.08" x2="428.09" y1="446" y2="446" xlink:href="#a"/>
<linearGradient id="n" x1="428.1" x2="440.28" y1="435.5" y2="435.5" xlink:href="#a"/>
<linearGradient id="ag" x1="467.84" x2="468.31" y1="387.5" y2="387.5" xlink:href="#a"/>
<linearGradient id="v" x1="464.63" x2="470.31" y1="390.75" y2="390.75" xlink:href="#a"/>
<linearGradient id="au" x1="464.51" x2="464.63" y1="396.64" y2="396.64" xlink:href="#a"/>
<linearGradient id="bb" x1="445.49" x2="451.82" y1="417" y2="417" xlink:href="#a"/>
<linearGradient id="h" x1="413.49" x2="418.44" y1="453.05" y2="453.05" xlink:href="#a"/>
<linearGradient id="l" x1="405.06" x2="407.95" y1="460.4" y2="460.4" xlink:href="#a"/>
<linearGradient id="am" x1="113.27" x2="120.68" y1="470.05" y2="470.05" xlink:href="#a"/>
<linearGradient id="ao" x1="282.3" x2="290.97" y1="507.99" y2="507.99" xlink:href="#a"/>
<linearGradient id="bc" x1="31.9" x2="33.46" y1="131.7" y2="131.7" xlink:href="#a"/>
<linearGradient id="b" x1="272.14" x2="282.29" y1="509.33" y2="509.33" xlink:href="#a"/>
<linearGradient id="bf" x1="505.67" x2="506.22" y1="219.1" y2="219.1" xlink:href="#a"/>
<linearGradient id="ae" x1="364.7" x2="365.86" y1="485.34" y2="485.34" xlink:href="#a"/>
<linearGradient id="ap" x1="373.7" x2="374.79" y1="477.42" y2="477.42" xlink:href="#a"/>
<linearGradient id="ah" x1="365.19" x2="368.1" y1="484.35" y2="484.35" xlink:href="#a"/>
<linearGradient id="p" x1="367.77" x2="369.92" y1="483.54" y2="483.54" xlink:href="#a"/>
<linearGradient id="aa" x1="361.34" x2="365.19" y1="486.2" y2="486.2" xlink:href="#a"/>
<linearGradient id="z" x1="1.8" x2="507.7" y1="255.95" y2="255.95" xlink:href="#a"/>
<linearGradient id="av" x1="383.78" x2="388.14" y1="474.15" y2="474.15" xlink:href="#a"/>
<linearGradient id="ab" x1="388.14" x2="388.79" y1="473" y2="473" xlink:href="#a"/>
<linearGradient id="ai" x1="391.84" x2="398.28" y1="465.45" y2="465.45" xlink:href="#a"/>
<linearGradient id="r" x1="399.04" x2="402.15" y1="461.55" y2="461.55" xlink:href="#a"/>
<linearGradient id="an" x1="353.19" x2="359.13" y1="489.26" y2="489.26" xlink:href="#a"/>
<linearGradient id="aq" x1="366.76" x2="373.89" y1="478.51" y2="478.51" xlink:href="#a"/>
<linearGradient id="c" x1="373.89" x2="378.36" y1="475.5" y2="475.5" xlink:href="#a"/>
<linearGradient id="m" x1="295.96" x2="303.15" y1="502.5" y2="502.5" xlink:href="#a"/>
<linearGradient id="bd" x1="508.89" x2="509.53" y1="243.35" y2="243.35" xlink:href="#a"/>
<linearGradient id="as" x1="508.09" x2="509.17" y1="253.1" y2="253.1" xlink:href="#a"/>
</defs>
<title>report</title>
<path class="f06b289b-632f-480c-8b06-adca51e071a7" transform="translate(-1.8 -1.4)" d="m509.4 254.8c0 2.4 0.7 1.5 0.8 1.9-0.3-4-1-1.8-0.8-1.9z"/>
<polygon class="c393f10c-9cbb-4b29-91b8-96d9f9794db4" points="503.2 215.5 501.5 210 502.8 214.8"/>
<path class="6a34dff3-9742-45cf-a77e-c9452ddf3289" transform="translate(-1.8 -1.4)" d="M501.2,201l1.6,2.6c-.5-1.9-1-3.9-1.6-6s-1.1-4.2-1.8-6.2c-1.3-4-2.4-7.8-3-10.5-.2,3.6,4,12.5,4.8,19Z"/>
<path class="0f9bdddb-6e8b-4ea2-9dc6-336272dfbae7" transform="translate(-1.8 -1.4)" d="m493.5 165.3c-0.3-0.7-0.7-1.8-1.3-3.5 0 1.3-1.9-3.8 1.5 4.3a3.09 3.09 0 0 1-0.2-0.8z"/>
<path class="4d3e134c-fb8a-4bca-9533-40069d6268fa" transform="translate(-1.8 -1.4)" d="M493.5,165.3c1.4,3.6-.6-2.4,0,0Z"/>
<path class="8671713a-2633-40aa-84a0-3bc59500dfa4" transform="translate(-1.8 -1.4)" d="M488.8,153.5c-.2-1.1-2-5.2-1.1-3.8-2.4-4.7-2.1-3.6-1.3-.7Z"/>
<path class="f6e37d52-7d49-4620-9aa8-9b2a5b98b4a9" transform="translate(-1.8 -1.4)" d="m483.5 145.1a17.1 17.1 0 0 1 1.3 2.3 4.51 4.51 0 0 0-1.3-2.3z"/>
<path class="f988f772-8d4f-460b-9945-d723404bd86a" transform="translate(-1.8 -1.4)" d="m487.4 152.3-2.6-4.9c0.1 0.7-0.2 1 1.2 2.3-0.5-0.3 0.2 0.5 1.4 2.6z"/>
<path class="547c465f-357c-4962-a29a-45680c2760b6" transform="translate(-1.8 -1.4)" d="M489.7,158.7c.1.6-.1.3-1.3-1.9,1.9,4.4,2.9,6.3,2.9,5.9a12.4,12.4,0,0,0-.6-2.2,31.41,31.41,0,0,0-2.2-5.2A29.26,29.26,0,0,1,489.7,158.7Z"/>
<path class="40f2132d-0cce-4903-9932-43101ce858c3" transform="translate(-1.8 -1.4)" d="M496.7,186.3c-.3-.8-.7-2.5-1.1-4s-.8-2.8-1-2.6c.3,1.2.6,2.4.8,3.7Z"/>
<path class="31b5434a-7df6-4f76-a5d5-9d1508ece701" transform="translate(-1.8 -1.4)" d="m471.7 121c-0.4-0.1 0.4 1.8 0.3 2.3a34.57 34.57 0 0 1 2.2 3.1c-0.8-1.9-2.7-5-2.5-5.4z"/>
<path class="bd00f2b5-dc5a-4b61-90dd-51c6039e8ff2" transform="translate(-1.8 -1.4)" d="m472 123.3-3.4-4.5c2.7 4.2 3.4 4.9 3.4 4.5z"/>
<path class="21d1ea1b-808a-4d68-86c2-5042a3a83ec3" transform="translate(-1.8 -1.4)" d="M483.2,146.8l1.1,2,2.3,4c-1.8-3.2-3.5-6.4-5.5-9.5l.8,1.6Z"/>
<path class="521fe77a-b41e-415b-a29d-90c45f8ad64a" transform="translate(-1.8 -1.4)" d="m462 105.5-2-2.1-2.1-2 1.8 1.8a25 25 0 0 0 2.3 2.3z"/>
<path class="0eeac92a-e502-4efa-a7bd-422d04b9749c" transform="translate(-1.8 -1.4)" d="m451 90.9a94 94 0 0 0-7.3-7.1 59.53 59.53 0 0 1 7 8.4c1.9 1.5-1.5-3 0.3-1.3z"/>
<path class="caa7cf8e-d1f3-4e92-b127-82e7342176e3" transform="translate(-1.8 -1.4)" d="m439.9 80.6c1.2 1.1 2.4 2.1 3.8 3.2-1.2-1.1-2.5-2.2-3.8-3.2z"/>
<path class="2f0e77cc-0a86-4075-a010-e53250eb71b3" transform="translate(-1.8 -1.4)" d="M462.2,109c.4.5.8,1.2,1.3,1.8-.1-.4-.3-1.3-2-4Z"/>
<path class="ca326d06-2306-4425-9f9e-306999e2371e" transform="translate(-1.8 -1.4)" d="m462.2 109.1c-1.4-2-2.3-3.4-2.7-4 0.3 0.5 1.1 1.7 2.7 4z"/>
<path class="13f9abe5-1814-438d-9f3a-5bf13724d336" transform="translate(-1.8 -1.4)" d="m463.8 111.3c-0.1-0.2-0.2-0.3-0.3-0.5 0 0.2 0.1 0.3 0.3 0.5z"/>
<path class="bd3ba029-0d0d-43ea-858e-9e2e572fee86" transform="translate(-1.8 -1.4)" d="m472.7 129.3c1.6 1.8 0-1.7 2.9 2.3-1.9-2.6-5.7-8.3-2.9-2.3z"/>
<path class="c49fea4b-0785-4131-8ef6-ccb0510b3573" transform="translate(-1.8 -1.4)" d="m468.5 119c-1.3-1.7-2.5-3.4-3.9-5.1 1.1 1.6 2.1 3.4 3.1 5 0.1-0.1-0.2-1.1 0.8 0.1z"/>
<polygon class="5fae764d-68ba-4d79-9c5e-da9d573c5c8c" points="461 110.3 462.8 112.6 461.6 110.7"/>
<path class="e83d79af-12d7-43a6-a3af-2007a5ca77ee" transform="translate(-1.8 -1.4)" d="m447 90.2c0.5 0.2 1.7 1.1-0.7-1.7a39.65 39.65 0 0 1-2.9-2.9c-1-1-2-2.1-3.2-3.2 1.1 1.3 2.3 2.5 3.4 3.9s2.3 2.6 3.4 3.9z"/>
<path class="ba8f4d5d-0d32-40cb-9807-c839a1248785" transform="translate(-1.8 -1.4)" d="m454.2 98.4-0.4-0.4c0.2 0.3 0.4 0.5 0.4 0.4z"/>
<path class="6dfe190c-2483-459a-9682-a4c4b0dc9b1c" transform="translate(-1.8 -1.4)" d="M417.6,61.1c.1.1.2.3.3.4h.2Z"/>
<path class="33597531-e41a-4678-ae3f-73ad6697dfed" transform="translate(-1.8 -1.4)" d="m447.2 90.7a25.14 25.14 0 0 0 3.8 4c-1.3-1.4-2.7-2.9-4.1-4.5-0.1-0.1-0.2-0.1 0.3 0.5z"/>
<path class="a3224032-2cc5-4ecc-bbbf-7a734eeb5117" transform="translate(-1.8 -1.4)" d="m433.5 74.6c0.9 1 1.9 2.2 2.9 3.4a15.21 15.21 0 0 0-2.9-3.4z"/>
<path class="cf923220-a7e7-4674-8345-eeaea87cc168" transform="translate(-1.8 -1.4)" d="m453.5 97.1 0.3 0.3c-0.5-0.7-0.5-0.6-0.3-0.3z"/>
<path class="b24657b6-9964-4eac-b51f-4d621d98dbf2" transform="translate(-1.8 -1.4)" d="m453.5 97.1c-0.9-1-1.7-1.7-2.4-2.4 1 1.2 2 2.3 2.8 3.2a2 2 0 0 1-0.4-0.8z"/>
<path class="9dde8492-fab7-4b86-9985-d7b3a26053f8" transform="translate(-1.8 -1.4)" d="m426.3 68.9 1.8 1.6c-1.9-2-3.2-3.5-5.6-6.2-3.2-2.4-4-2.8-4.4-2.8 3 2.6 6 5.2 8.9 7.9z"/>
<path class="cfc96999-4353-432e-aebe-a2a1f44be55a" transform="translate(-1.8 -1.4)" d="M435.9,78c-1.7-.9-6.2-4.6-4.2-1.7a46.83,46.83,0,0,0,4.2,3.8,17,17,0,0,1,2.8,2.2c-8-8.1,2.5,2.1-2.9-4.1,1.6,1.5,3.1,3,4.4,4.3-1.4-1.5-2.7-3.1-3.9-4.5l.2.2h0c.3.4.4.6,0,.1l-.2-.2c0,.1-.2,0-.4-.1-2.2-2.5-.2-.5.5.2h.2c-1.3-1.4-2.8-2.6-4.2-3.9l-4.3-3.8C429.7,72.3,432,74.2,435.9,78Z"/>
<path class="0a3ae4f2-4155-4855-8e4b-b8317bfaa783" transform="translate(-1.8 -1.4)" d="m468.3 124.9c-0.1-0.3-0.1-0.3-0.1-0.4-0.4-0.5-0.6-0.7 0.1 0.4z"/>
<path class="36ffa69f-82e2-43bd-9d29-c5cfb92a450a" transform="translate(-1.8 -1.4)" d="m469.3 124.6-0.5-0.6a60.25 60.25 0 0 1-4.1-8.4 23 23 0 0 0 1.5 5.2 18.71 18.71 0 0 1 2.5 3.4c1.1 2.1-0.3 0.2-0.4 0.4 1 1.2 3.4 4.5 1 0z"/>
<path class="af91d5cc-aeb9-4896-b0d2-ca54fad14e64" transform="translate(-1.8 -1.4)" d="m464.6 115.6a0.76 0.76 0 0 0-0.1-0.4c0-0.2 0 0 0.1 0.4z"/>
<path class="77e4097d-2e3e-4dbe-8721-cb4fe9c4f009" transform="translate(-1.8 -1.4)" d="M448.2,95.5l.1-.4c3.3,4.2,2.9,3.1,3.5,3.4-2-2.5-4.2-4.7-6.3-7Z"/>
<path class="11a0372b-9613-4722-ad87-f375c6c81b2e" transform="translate(-1.8 -1.4)" d="m418.4 60.3c-1.6-1-3.3-1.8-5-2.7l3.5 2.4z"/>
<path class="79c5cc8a-c7bb-4f96-8d40-57baa2e76663" transform="translate(-1.8 -1.4)" d="m408 52.3a26.94 26.94 0 0 0-2.9-1.6l2.1 1.8z"/>
<path class="1302b572-a88d-4be7-acb8-8790ad63225f" transform="translate(-1.8 -1.4)" d="m113.4 43.8 1.4-0.1a42.62 42.62 0 0 1 5.9-3.6c-3.8 1.6-8.1 3.3-7.3 3.7z"/>
<path class="27264940-f1bc-4514-909f-9a52552a3486" transform="translate(-1.8 -1.4)" d="m291 4.7c-3.5-0.7-6.2-1.2-8.7-1.5 4.2 0.9 7.5 2 8.7 1.5z"/>
<path class="04e4988e-73cb-4e7d-aa3f-014ab10e39f3" transform="translate(-1.8 -1.4)" d="m31.9 379.4c1 1.4 1.5 2 1.6 1.9-1-1.5-1.6-2.3-1.6-1.9z"/>
<path class="2abc3f15-04c4-44fd-ab70-d7caa2ccd74f" transform="translate(-1.8 -1.4)" d="M272.1,2.3l1.8.3c2.6.1,5.2.1,8.3.5A41,41,0,0,0,272.1,2.3Z"/>
<path class="1b084ba0-e6d3-4041-99c4-c6e83817bf5b" transform="translate(-1.8 -1.4)" d="m505.7 295.3c0.2-0.8 0.3-2.3 0.6-4.8-0.2 1.2-0.4 3-0.6 4.8z"/>
<path class="fd1a64a8-b924-4602-a80f-8949e4fc1cb9" transform="translate(-1.8 -1.4)" d="M364.7,26.4c2.4,1.1.4.1,0,0Z"/>
<path class="240559ce-c4a7-4eb6-aac5-4a04bba3456b" transform="translate(-1.8 -1.4)" d="m373.7 34.5a1.61 1.61 0 0 1 1.1 0.2c-0.5-0.2-1-0.3-1.1-0.2z"/>
<path class="82969a59-94cd-4277-bac7-894318f2a6b1" transform="translate(-1.8 -1.4)" d="m368.1 28.5c-0.8-0.5-1.8-1.1-2.9-1.7 0.5 0.2 1.3 0.8 2.9 1.7z"/>
<path class="b937323f-c597-46fc-b9c0-12f6224a1950" transform="translate(-1.8 -1.4)" d="m367.8 27.9c0.8 0.4 1.4 0.8 2 1.1 0.3 0.1 0.1-0.1-2-1.1z"/>
<path class="c2dd9b4e-019f-42b6-9aa0-d98087d9a55d" transform="translate(-1.8 -1.4)" d="m364.7 26.4c-0.7-0.3-1.7-0.8-3.4-1.5 1.4 0.6 2.6 1.2 3.9 1.8-0.5-0.2-0.6-0.3-0.5-0.3z"/>
<path class="214c6ebf-1ff2-425a-8810-4593855ff6c0" transform="translate(-1.8 -1.4)" d="M507.3,263.8l.1,4.6c-.5-3.1-1.2-1-2.1,1.8-.1.3-.2.5-.3.8.3-4.7.4-9.5.4-14.3A250,250,0,0,0,426.8,74.4l.1-.4c-2.1-2-3.9-3.4-2.9-2.2-1.8-1.7-3.7-3.3-5.5-4.9,3.5,2.2,2.2-1.5-.6-5.4-.3.1-.4.2-5.3-3.1,1.5,1.4,9.4,8.9,5.3,6.2-3-2.4-4.2-3.4-5-4.2s-1.1-1.3-2.5-2.6c1,1.3-1.1,0-3.4-1.3a13.2,13.2,0,0,0-4.2-2c-3.1-2.3-6.3-4.5-9.6-6.7l-.7-1.4-2.2-.6,2.5,1.7A248.72,248.72,0,0,0,363,30.6c.3,0,.3-.1-.2-.4l-4-1.7c-3.3-2.3,7.8,2.5,3-.1,2.8.9,5.6,2.2,8.7,3.5a52.38,52.38,0,0,1,4.8,2.3c1.6.9,3.3,1.9,5,3l.8,1.6c0-.3-4.3-3.2-6.5-4.1,1.6.6,4.2,2.5,6.8,4.3,1.3.9,2.7,1.8,3.9,2.5a14,14,0,0,0,3.3,1.6c-1.5-1.2-3-2.5-4.5-3.6,2.7,1.2,5.6,2.8,8.7,4.4,1.5.8,3.1,1.6,4.6,2.6a44.77,44.77,0,0,1,4.4,3.2c-2.2-2.7-1.4-.9-5-4.8,3,3.6-15.8-10.1-10.5-5a31.35,31.35,0,0,0-6-4.5c-2.1-1.4-4.4-2.8-7.3-4.9,0,.4,1.9,1.7-3.5-1.3a3.82,3.82,0,0,1-1.3-.4l-.4-.2c.1.1.2.1.3.2-.3-.1-.3-.1.1.1a22.24,22.24,0,0,1,2.6,1.9c-1.5-.3-4.4-1.7-7.4-3s-6-2.5-7.6-3c-3.2-1.6,1.5.3-.1-.9-1.6-.5-3.1-1-4.8-1.4-.2-.8-8.6-4.7-.4-1.9l-7.2-2.9a69.55,69.55,0,0,0-7.1-2.9,55.88,55.88,0,0,0-6.8-2.1c-3.5-1.2-9.1-1.7-5.9-1.4-2-.5-3.9-1-5.9-1.4l-6-1.1-.1-.2c-5.8-1.5-12-2.1-18.3-3.2-6.3-.6-12.8-1.6-19.6-2.7-2-.1-4.1-.1-6.5-.2s-5.1-.1-8.5-.3l-1.3-.7c-2.6,0-6.5,0-10-.1s-6.7,0-7.8.5a29.73,29.73,0,0,0-6.5-.3c-1.4,0-2.9.1-4.5.2s-3.2.4-4.9.6c-3.3.5-6.8.9-10,1.5s-6,1.2-8.3,1.5l-.2.9-2.3.4-1.8.6-4.6,1.2c-1.6.4-3.2.9-4.9,1.3s-3.4,1.1-5.3,1.7l.7.6c-3.1,1.2-7.3,2.1-11.9,3.6q-3.45,1.05-7.2,2.1c-2.4.8-4.9,1.8-7.4,2.8a25.26,25.26,0,0,1,4.9-2,76.52,76.52,0,0,0-9.2,3.1c-3,1.3-5.9,2.9-8.9,4.4s-5.7,3.2-8.4,4.6-5.5,2.8-8.1,4a41,41,0,0,1-6,3.5c.2-.1.4-.3.6-.4-.3.1-.6.4-1,.6-1.2.5-2.3,1.1-3.6,1.7,1.1-.5,2.1-1,3-1.4-1.9,1.1-4.6,3.1-7.3,5l-1.6.1a2.09,2.09,0,0,1-.6.4c-2.9,1.5-2,1.7-.2,1.3-1.3,1-2.4,2-3.3,2.8-1.4.2-3.1,1.6-4.9,3-.9.7-1.8,1.4-2.7,2a8.73,8.73,0,0,1-2.7,1.4c-.7.9-3.8,3.6-6.9,6.3a45.93,45.93,0,0,0-5.7,6.1,43.36,43.36,0,0,0-7.6,7.1l-1.8.4L76,77.8,73.6,81c-3.8,3.1-5.4,4.3-2.6.3-1.8,2.3-3.1,3.9-4.1,5.1s-1.6,2.1-2.3,3c-1.3,1.7-2.5,3.2-5.2,7.3l-.2-.7c-2.2,2.8-4.9,7.7-6.7,9.1a80.86,80.86,0,0,0-6.1,7.6c-.6.9-1.3,1.8-2,2.8s-1.3,2-2,3.1c-1.4,2.2-2.9,4.4-4.4,6.8-5.8,9.7-11.8,21-16.3,30.2,1.7-1.4.5.6-.9,3.2s-2.9,5.8-2.4,6.5c-.8.9-2.1,3.5-1.3.3a26.8,26.8,0,0,1-1.3,3.4c-.4,1.1-.7,2.1-1.1,3.1-.7,1.9-1.3,3.7-1.9,5.3a36.77,36.77,0,0,0-2.4,9.9c-.8,1,0-2.3-.6-1.4a13.77,13.77,0,0,1-1.1,4.2c-.5.9.1-1.6.3-3.2-.7,2.6-1.2,4.6-1.5,6.2a17.17,17.17,0,0,0-.2,3.7,3.73,3.73,0,0,0,1.2,2.9,38.94,38.94,0,0,0-1.8,6.2,24,24,0,0,0-.2,5.4c-.7,1.7-1.7,4.7-.7-1.7-.2.9-.5,2.7-1,5-.2,1.1-.5,2.4-.7,3.6s-.4,2.6-.5,3.9c-.7,5.2-1.2,10-.6,10.2a31.79,31.79,0,0,0-.4,6.1c-.2,2.1-.3,3.6-.4,5s-.1,2.5-.2,3.6c-.1,2.2-.1,4.4-.2,8.5l.2-2.2c1.1,3.2.3,6.7.6,13.2l-.1-.2a56.33,56.33,0,0,0,.1,7.6c.1,1.5.2,2.3.3,3.1s.2,1.6.3,3.1c0,.8.1,1.7.1,2.9s.2,2.7.3,4.5l.7-.9c.9.6,1.1,3.8,1.2,8A77,77,0,0,0,7.3,308l-.1-3.1a43.64,43.64,0,0,1,.9,8.9c.1,3.3,0,6.8.6,9.1.2,1-.7-1.5-1.1-2.9,2.4,12.2,1.4,1.3,4.1,10.1,0,1.8-2-1.7-.3,4.3.3,1.5,2.1,5.7,4.2,10.5,1.1,2.3,2.3,4.9,3.3,7.3.5,1.2,1,2.4,1.4,3.6a25.58,25.58,0,0,1,1.2,3.2c-.4-1.9-.8-3.7,1.3,0,2.7,5.9,6.2,16.8,10.3,21.3.3.8.4,1.1.3,1.2.7,1.1,1.6,2.4,2.6,4s2,3.2,3.1,4.7a59.93,59.93,0,0,0,5.5,7.1c0,1.4,1.3,3.5,3.1,6.1a66.57,66.57,0,0,0,6.5,8.2c2.4,2.7,4.6,5.3,6.2,7.3s2.6,3.3,2.1,3.7c1.7,1.9,3.4,3.9,5.1,5.7l5.4,5.5-.5-.1c1.7,1.8,3.1,3.3,4.4,4.5s2.4,2.1,3.4,2.9a42.93,42.93,0,0,0,4.9,3.5c1.6,1.6.2.7,0,.7,5.3,4.9,8.2,7.6,11.2,9.7a99.44,99.44,0,0,0,11,7l.6,1.4c2.8,1.7,16.5,12.9,29.6,18.5a4.35,4.35,0,0,1-1.6-.4c7.2,3.3,15.6,7.9,23.2,11.2,1.9.8,3.7,1.6,5.5,2.3.9.3,1.7.7,2.5,1a21.72,21.72,0,0,0,2.4.7c3,.9,5.5,1.4,7.1,1.1,3.4,1,6.8,1.5,10.2,2.3-12.9-3.9,2.3-.7-2.9-2.7a47.87,47.87,0,0,1,7.6,2.6c1.8.7,2.2,1.2-1,.4l-.9-.4c-2.8,1,16.2,4.5,15.6,5.3a312.13,312.13,0,0,0,39.1,5c3.2.1,6.5.3,9.7.4s6.4,0,9.6-.1c1.6,0,3.2,0,4.8-.1l4.7-.3c3.2-.3,6.3-.3,9.4-.8-1-.3-2-.5-3-.9,2.9-.3,5.8-.7,8.6-1,2.3,0,3.2.5-3,1.3a22.34,22.34,0,0,0,6.4-.9,16.36,16.36,0,0,0,4-1.4c12.1-1.7-4.5,2.2-.8,1.6l5-1-1.2.1c2-.6,3-1,4.5-1.5.7-.2,1.6-.4,2.7-.7s2.5-.6,4.3-1.1c4.7-.8,2.5.2,4.4-.2,0,.1.6,0,2.8-.6,3.6-.9,7.1-1.9,10.6-2.9l-4.5.3c2.3-.9,4.8-1.6,6-2s1.3-.6-1.3-.4c3.8-.3,13.6-3.3,22.7-7.1,2.3-.9,4.5-1.9,6.6-2.9s4.1-1.9,5.9-2.7c3.5-1.7,6.1-3.1,7.2-3.5,1.4-.9,2.9-1.8,4.4-2.7s2.9-1.8,4.5-2.8c3-1.9,6.4-3.6,9.8-5.9-1.8,1-3.4.7,2.6-3-.3.8.3.8,1.5.4a34.53,34.53,0,0,0,4.6-2.6c1.8-1.2,3.8-2.6,5.8-3.7a27.92,27.92,0,0,1,2.8-1.6,17.09,17.09,0,0,1,2.3-1.2c-2.4,1.2,1.6-2,5.3-5a49.59,49.59,0,0,0,4.3-3.9c.8-.9.7-1.1-1.1-.1,4.6-3.8.8.4,4.6-2.2,10.2-10,23.2-21.4,33.8-35.6-.1-.4-2.2,1.7-.2-1.6,2.3-2.1,4.4-4.4,6.7-6.7a12.17,12.17,0,0,0,1.5-3.5,6.47,6.47,0,0,1,1.1-1.9,20.26,20.26,0,0,1,2.3-2.9c-.7.6-1.7,1.6-.5-.5a204,204,0,0,0,24.2-46.6c6.3-16.6,11-33.7,15.1-50.9-1.4,4.6-.9,1.5-.3-2.1-.5,2.3-.7-.2-1.1.2,1-4.8,2-9.6,2.9-14.4-.4-1.4-.2-5.3.1-9.1a49.74,49.74,0,0,0,.2-5.2A10.9,10.9,0,0,0,507.3,263.8Zm-95.9-203c1,.7,2.1,1.5,3.2,2.4.8.7,1.6,1.5,2.4,2.3-2.2-1.9-4.5-3.8-6.8-5.6ZM337.8,16.1h-.2C333.6,14.4,335,15,337.8,16.1ZM294.1,7.6c2.5.2,5.3.5,8.2.8,4.7.6,5.6,1.2,5.6,1.4s-1,.3-.1.4a78,78,0,0,0,9.9,2,58.75,58.75,0,0,0,6,.9,43.29,43.29,0,0,1,5.4.9,60.69,60.69,0,0,1,8,2.8c5.3,2.7-.3,1.7.7,2.7-3.7-1.1-6.4-2.2-8.9-3.1s-4.7-1.7-7.2-2.4l6.1,2.1a67.16,67.16,0,0,1-10-2.6c.5.2,1.1.5,1.9.8a250.22,250.22,0,0,0-34.9-6.7c.8-.1,1.7-.1,2.7-.2C289.4,7.5,291.6,7.4,294.1,7.6ZM244.4,5.5c-.3.2.5.5,1.1.6-2.4.1-4.8.2-7.2.4A33.7,33.7,0,0,1,244.4,5.5Zm-50.8,5.7c.5-.1,4-.5,7.7-1.1a26.6,26.6,0,0,1,2.8-.3c.9-.1,1.8-.1,2.7-.2a26.69,26.69,0,0,1,3.8-.1,1.69,1.69,0,0,1,.9.2c-3,.5-6,1.1-9,1.7l-.4-1.1-.8,1.4c-3,.6-5.9,1.3-8.9,2.1A2.64,2.64,0,0,1,193.6,11.2ZM149.4,26.6l2.1-.4c2.5-1.3,4.9-2.7,7.5-3.9-1.8,1.3-5,3.7-8.5,6.2-4.3,1.9-8.5,4-12.6,6.2A66.4,66.4,0,0,1,149.4,26.6ZM87.7,67l-.3.6C87.3,67.6,86.6,68.1,87.7,67ZM74.2,82.7c-1.4,1.5-2.9,3-4.3,4.5,1-1.8,2.1-3.7,3.2-5.5C73.1,82.4,73.6,82.6,74.2,82.7ZM7.9,207c.2-1.7.6-3.4.9-5.2.5-1.2.6-.1.6,1.7.1-.7.1-1.4.2-1.9.4-1.2.7-1.8.9-1.9-.4,1.6-.7,3.3-1.1,4.9v-1.1a16.59,16.59,0,0,0-.2,2.4c-.2.8-.3,1.7-.5,2.5-.6,1.5-1.1,2.9-1.4,3.8ZM315.5,503.2l-1.7.2C317.5,502.3,316.5,502.7,315.5,503.2Z"/>
<path class="b153e8f6-c43c-4c36-a0a6-64072c428c32" transform="translate(-1.8 -1.4)" d="M388.1,39.3c0-.2-.5-.7.1-.5-1.4-.8-2.9-1.6-4.4-2.4A27.66,27.66,0,0,1,388.1,39.3Z"/>
<path class="1fc539aa-34d8-4854-8440-9713982d7725" transform="translate(-1.8 -1.4)" d="m388.1 38.8a5.74 5.74 0 0 1 0.7 0.4 5.74 5.74 0 0 0-0.7-0.4z"/>
<path class="130bc65c-0467-496c-9ed1-712d46a0c9d3" transform="translate(-1.8 -1.4)" d="M396.7,47c-1.2-.8-3.1-1.8-4.9-2.8,0,.4.8,1,2,1.8.6.4,1.3.8,2.1,1.3s1.6,1,2.4,1.6c-.2-.1-.4-.3-.6-.4C398.4,48.4,397.9,47.9,396.7,47Z"/>
<path class="e6f740af-59ad-43c9-a94a-454262e9a0e9" transform="translate(-1.8 -1.4)" d="m399 49.4 3 2.1c0.6 0-1.1-0.9-3-2.1z"/>
<path class="bc02bb5a-4375-4971-a48c-b48f37b8d9ca" transform="translate(-1.8 -1.4)" d="m358.9 23.7c1.1 0.1-1.9-1-3.9-1.6a4 4 0 0 0-1.8-0.3 33 33 0 0 0 3.4 1.5c1.6 1 1.4-0.2 2.3 0.4z"/>
<path class="046c398a-212d-4825-b202-da2e04d768b3" transform="translate(-1.8 -1.4)" d="m366.8 31.7 5.5 3.1c0-0.2 0.7 0.1 1.6 0.5-3.5-1.8-7.2-3.9-7.1-3.6z"/>
<path class="b588bcdb-2c69-4b4b-9ae7-84a8f36ed2fb" transform="translate(-1.8 -1.4)" d="m373.9 35.3c1.8 1 3.4 1.9 4.5 2.4-1-0.5-3-1.7-4.5-2.4z"/>
<path class="511190dd-b85c-4f52-a8ec-bde67f8190bf" transform="translate(-1.8 -1.4)" d="m299.7 9.9c1.6 0.1 4.2 0.4 3.2 0l-6.8-1c-0.7 0.1 1.1 0.6 3.6 1z"/>
<path class="1491862f-3c3c-4081-9b85-0f7887c78aed" transform="translate(-1.8 -1.4)" d="M509,271.3c.3-1.8.4-3.5.6-5.3l-.6,3.4A6.05,6.05,0,0,0,509,271.3Z"/>
<path class="c32a2140-c704-432c-8949-301ee80ad9d4" transform="translate(-1.8 -1.4)" d="M509.2,259.9l-.9-3.2a30.27,30.27,0,0,1-.2,4.4Z"/>
<path class="38c6077f-49ec-4b74-af4a-17f1aeedbc01" transform="translate(-1.8 -1.4)" d="m331.3 142.6h-12.6v-10.4a7.5 7.5 0 0 0-7.5-7.5h-17.2a38.7 38.7 0 0 0-76.08 0h-17.12a7.5 7.5 0 0 0-7.5 7.5v10.4h-12.6a27.34 27.34 0 0 0-27.3 27.3v192.5a27.34 27.34 0 0 0 27.3 27.3h150.6a27.34 27.34 0 0 0 27.3-27.3v-192.5a27.34 27.34 0 0 0-27.3-27.3zm-123-2.9h16.5a7.5 7.5 0 0 0 7.5-7.5v-0.2s0-0.13 0-0.2a23.7 23.7 0 1 1 47.4 0 7.49 7.49 0 0 0 7.15 7.48 7.37 7.37 0 0 0 2.45 0.42h14.4v22.7h-95.4zm135.3 222.7a12.32 12.32 0 0 1-12.3 12.3h-150.6a12.32 12.32 0 0 1-12.3-12.3v-192.5a12.32 12.32 0 0 1 12.3-12.3h12.6v12.3a7.5 7.5 0 0 0 7.5 7.5h110.4a7.5 7.5 0 0 0 7.5-7.5v-12.3h12.6a12.32 12.32 0 0 1 12.3 12.3z"/>
<path class="38c6077f-49ec-4b74-af4a-17f1aeedbc01" transform="translate(-1.8 -1.4)" d="m294.2 261.86h-76.4a7.5 7.5 0 0 0 0 15h76.4a7.5 7.5 0 0 0 0-15z"/>
</svg>
