<?xml version="1.0" encoding="UTF-8"?>
<svg data-name="Layer 1" viewBox="0 0 509.1 510" xmlns="http://www.w3.org/2000/svg" xmlns:xlink="http://www.w3.org/1999/xlink">
<defs>
<style>.b2014d5b-e49b-44e9-bb32-1304096fbe0f{fill:url(#a);}.\31 e452572-a63a-46cf-93da-0d83625489e7{fill:url(#at);}.\30 fee0919-5451-4f38-846e-77c05615163a{fill:url(#r);}.\37 3677a2a-859e-472f-b446-242b0f5273eb{fill:url(#u);}.d64d58ce-656f-4644-9c53-4a932942c9df{fill:url(#e);}.\37 9fcbf17-03f1-458e-8853-7cf0951b42d5{fill:url(#av);}.\33 1bf1aa2-d73d-4c05-8a1f-0766a233b564{fill:url(#ap);}.\36 7cc759d-71b4-4f16-a2ae-f99c0dc27da7{fill:url(#ay);}.c61cebc6-2654-4e3d-8b38-7fc8a0566b21{fill:url(#ax);}.\36 b56a74a-fc33-4044-b3c3-63a98e61d304{fill:url(#bc);}.f7b5a6a0-cc14-462f-823e-50f9514a83b6{fill:url(#aj);}.d37f0a0a-b639-4e7f-a223-00e07626007f{fill:url(#ah);}.\31 584ce46-bda8-4dba-9cb5-8d8dcb024656{fill:url(#ai);}.d2a1ea1a-4c24-431b-a14a-0b8f59a863d3{fill:url(#ag);}.\35 c9277c9-01b7-4342-ab1c-9b2f7b029494{fill:url(#aw);}.\32 d26df3f-9a02-47b5-91b4-744f69e19ec2{fill:url(#am);}.a57aaaff-4f2b-422e-a2ec-5f71445d18de{fill:url(#ae);}.e7ec75ee-46e8-4951-9400-7326876b88b7{fill:url(#al);}.c8c20490-6654-4100-af0f-defe0ef9e9c1{fill:url(#w);}.\31 ea40757-8d76-4929-8568-25bb6a21cc99{fill:url(#c);}.d42ac4b9-d99c-4ea9-ae34-3396a1fd4e66{fill:url(#ad);}.b1ab6ae4-d2f0-41b1-b927-eb84b0ff0574{fill:url(#bf);}.fa83520e-a1b1-4576-801c-c701ad1468b5{fill:url(#i);}.dd525a28-e50d-4518-b8f1-fa585bf2c907{fill:url(#aq);}.ac4e4939-a3df-47b7-a428-575788499bc9{fill:url(#af);}.\32 925a68b-7dd6-4f6d-87bf-d0653f804d16{fill:url(#p);}.\39 210e7d4-b28f-41f1-a3b0-a60e7a346b0f{fill:url(#as);}.\35 3603cdf-be75-43c9-9721-0e2b17198f1e{fill:url(#y);}.\35 cfb323b-a13d-4d0e-82aa-717fffa16246{fill:url(#h);}.\34 a9b81b7-56f8-46cf-ae29-6481cf239c36{fill:url(#bd);}.b6134347-1ea4-4c7a-924d-42b46c06acaf{fill:url(#x);}.bc155fbb-6f72-4c9a-9555-f89a72679a29{fill:url(#an);}.a83b0d87-45ac-42e0-a2bc-c8d9d6f636b2{fill:url(#d);}.\39 1de788c-054a-48dd-9a96-9d85a86cee63{fill:url(#f);}.e4873cf1-1bb8-4d02-8ab7-a3ba1b2aed37{fill:url(#ac);}.d44b9208-d170-4220-86fc-da0633f5be61{fill:url(#n);}.aaba46b4-0859-48eb-a8d0-09eda088426f{fill:url(#ak);}.\39 ee2e83b-3681-4fa8-b893-62c40caf8a66{fill:url(#j);}.dfe88e45-4077-44b2-9699-5d09ceef9e03{fill:url(#ab);}.\36 8a5a871-cd02-42cc-8907-50e53ff0a659{fill:url(#v);}.f8aa25c4-080b-4d2e-9171-659e1134943f{fill:url(#t);}.\36 0853fb5-24b0-4efd-9f23-f5ad70feda65{fill:url(#b);}.cf5ed001-7a09-4f37-aeb0-a69fbaf6d8a1{fill:url(#z);}.\30 9d177e6-fc30-48f4-8192-c18641d71527{fill:url(#s);}.\32 dd0008c-9796-4518-9979-98526ef99e3e{fill:url(#az);}.\37 2a1d6de-03f3-4987-a791-e2476d0f36cd{fill:url(#ba);}.\31 2dfd741-1497-4517-810a-12e95a9f2ff1{fill:url(#bb);}.aba3e9e7-02ed-4122-9593-e6353018fc27{fill:url(#aa);}.dbdf50be-9c33-457e-9cd9-2cb39d8ef6db{fill:url(#l);}.\38 0eb10d3-95cd-459f-a434-99b391bb95fa{fill:url(#au);}.fe3cb59f-c2e1-49b5-b395-4e1891814bd1{fill:url(#ar);}.e84ffb7d-84d4-4f7a-a530-ed2fb1df5488{fill:url(#k);}.f048ca3a-974d-4376-84fe-bdcb45ed1c08{fill:url(#be);}.\36 301d36e-9906-47b4-bc5e-fd7af07cc372{fill:url(#o);}.\30 3586370-66e4-4659-85a7-3bc66c8969d3{fill:url(#g);}.\38 23b5f9c-de71-497f-935a-e4777f98b799{fill:url(#q);}.\32 8886037-c18a-4bbb-ae56-8b21eec3c0cd{fill:url(#m);}.\34 2a0649e-a09a-44fd-be15-9c9183a7ef0c{fill:url(#ao);}.\33 3e392e9-50d7-4ff4-b54e-9c8efdf29473{fill:#fff;}</style>
<linearGradient id="a" x1="509.74" x2="510.56" y1="256.51" y2="256.51" gradientTransform="matrix(1 0 0 -1 0 512)" gradientUnits="userSpaceOnUse">
<stop stop-color="#f5a54b" offset="0"/>
<stop stop-color="#f5a74c" offset=".47"/>
<stop stop-color="#f6ae52" offset=".64"/>
<stop stop-color="#f7b95b" offset=".76"/>
<stop stop-color="#f9ca68" offset=".86"/>
<stop stop-color="#fbe079" offset=".94"/>
<stop stop-color="#fdf68a" offset="1"/>
</linearGradient>
<linearGradient id="at" x1="503.73" x2="505.4" y1="297.95" y2="297.95" gradientTransform="matrix(1 0 0 -1 -1.5 511.1)" xlink:href="#a"/>
<linearGradient id="r" x1="496.73" x2="503.13" y1="319.75" y2="319.75" xlink:href="#a"/>
<linearGradient id="u" x1="492" x2="494.06" y1="348.35" y2="348.35" xlink:href="#a"/>
<linearGradient id="e" x1="493.75" x2="494.39" y1="346.53" y2="346.53" xlink:href="#a"/>
<linearGradient id="av" x1="486.11" x2="489.14" y1="362.2" y2="362.2" xlink:href="#a"/>
<linearGradient id="ap" x1="483.87" x2="485.16" y1="365.95" y2="365.95" xlink:href="#a"/>
<linearGradient id="ay" x1="485.16" x2="487.79" y1="362.35" y2="362.35" xlink:href="#a"/>
<linearGradient id="ax" x1="488.77" x2="491.71" y1="353.12" y2="353.12" xlink:href="#a"/>
<linearGradient id="bc" x1="495" x2="497.07" y1="329.16" y2="329.16" xlink:href="#a"/>
<linearGradient id="aj" x1="471.97" x2="474.55" y1="388.5" y2="388.5" xlink:href="#a"/>
<linearGradient id="ah" x1="469" x2="472.38" y1="391.2" y2="391.2" xlink:href="#a"/>
<linearGradient id="ai" x1="481.49" x2="486.99" y1="364.15" y2="364.15" xlink:href="#a"/>
<linearGradient id="ag" x1="458.21" x2="462.31" y1="408.75" y2="408.75" xlink:href="#a"/>
<linearGradient id="aw" x1="444.02" x2="451.62" y1="424.06" y2="424.06" xlink:href="#a"/>
<linearGradient id="am" x1="440.19" x2="444.02" y1="430.05" y2="430.05" xlink:href="#a"/>
<linearGradient id="ae" x1="461.8" x2="463.78" y1="403.4" y2="403.4" xlink:href="#a"/>
<linearGradient id="al" x1="459.79" x2="462.54" y1="405.2" y2="405.2" xlink:href="#a"/>
<linearGradient id="w" x1="463.78" x2="464.1" y1="401.25" y2="401.25" xlink:href="#a"/>
<linearGradient id="c" x1="472.06" x2="476" y1="383.08" y2="383.08" xlink:href="#a"/>
<linearGradient id="ad" x1="464.97" x2="468.85" y1="395.75" y2="395.75" xlink:href="#a"/>
<linearGradient id="bf" x1="463.11" x2="464.97" y1="399.4" y2="399.4" gradientTransform="matrix(1 0 0 -1 -1.5 511.1)" xlink:href="#a"/>
<linearGradient id="i" x1="440.57" x2="448.03" y1="425.85" y2="425.85" xlink:href="#a"/>
<linearGradient id="aq" x1="454.18" x2="454.56" y1="414.09" y2="414.09" xlink:href="#a"/>
<linearGradient id="af" x1="417.88" x2="418.34" y1="451.1" y2="451.1" xlink:href="#a"/>
<linearGradient id="p" x1="447.12" x2="451.37" y1="419.77" y2="419.77" xlink:href="#a"/>
<linearGradient id="as" x1="433.84" x2="436.71" y1="436" y2="436" xlink:href="#a"/>
<linearGradient id="y" x1="453.71" x2="454.06" y1="415.1" y2="415.1" xlink:href="#a"/>
<linearGradient id="h" x1="451.37" x2="454.18" y1="415.9" y2="415.9" xlink:href="#a"/>
<linearGradient id="bd" x1="418.34" x2="428.37" y1="446.3" y2="446.3" xlink:href="#a"/>
<linearGradient id="x" x1="428.37" x2="440.57" y1="435.8" y2="435.8" xlink:href="#a"/>
<linearGradient id="an" x1="468.18" x2="468.66" y1="387.74" y2="387.74" xlink:href="#a"/>
<linearGradient id="d" x1="464.86" x2="464.98" y1="396.91" y2="396.91" xlink:href="#a"/>
<linearGradient id="f" x1="464.98" x2="470.66" y1="390.95" y2="390.95" xlink:href="#a"/>
<linearGradient id="ac" x1="445.8" x2="452.15" y1="417.2" y2="417.2" xlink:href="#a"/>
<linearGradient id="n" x1="413.74" x2="418.71" y1="453.35" y2="453.35" xlink:href="#a"/>
<linearGradient id="ak" x1="405.31" x2="408.2" y1="460.8" y2="460.8" xlink:href="#a"/>
<linearGradient id="j" x1="113.04" x2="120.46" y1="470.45" y2="470.45" xlink:href="#a"/>
<linearGradient id="ab" x1="282.34" x2="291.02" y1="508.4" y2="508.4" xlink:href="#a"/>
<linearGradient id="v" x1="31.53" x2="33.1" y1="131.5" y2="131.5" xlink:href="#a"/>
<linearGradient id="t" x1="272.17" x2="282.34" y1="509.73" y2="509.73" xlink:href="#a"/>
<linearGradient id="b" x1="506.08" x2="506.64" y1="219.1" y2="219.1" xlink:href="#a"/>
<linearGradient id="z" x1="364.88" x2="366.04" y1="485.74" y2="485.74" xlink:href="#a"/>
<linearGradient id="s" x1="373.9" x2="374.99" y1="477.82" y2="477.82" xlink:href="#a"/>
<linearGradient id="az" x1="365.37" x2="368.28" y1="484.75" y2="484.75" xlink:href="#a"/>
<linearGradient id="ba" x1="367.96" x2="370.11" y1="483.85" y2="483.85" xlink:href="#a"/>
<linearGradient id="bb" x1="361.51" x2="365.37" y1="486.6" y2="486.6" xlink:href="#a"/>
<linearGradient id="aa" x1="1.5" x2="508.4" y1="256.1" y2="256.1" xlink:href="#a"/>
<linearGradient id="l" x1="388.36" x2="389.01" y1="473.3" y2="473.3" xlink:href="#a"/>
<linearGradient id="au" x1="383.99" x2="388.36" y1="474.5" y2="474.5" xlink:href="#a"/>
<linearGradient id="ar" x1="392.06" x2="398.52" y1="465.75" y2="465.75" xlink:href="#a"/>
<linearGradient id="k" x1="399.28" x2="402.39" y1="461.85" y2="461.85" xlink:href="#a"/>
<linearGradient id="be" x1="353.35" x2="359.3" y1="489.57" y2="489.57" xlink:href="#a"/>
<linearGradient id="o" x1="366.94" x2="374.08" y1="478.91" y2="478.91" xlink:href="#a"/>
<linearGradient id="g" x1="374.08" x2="378.56" y1="475.9" y2="475.9" xlink:href="#a"/>
<linearGradient id="q" x1="296.03" x2="303.23" y1="502.9" y2="502.9" xlink:href="#a"/>
<linearGradient id="m" x1="509.31" x2="509.95" y1="243.35" y2="243.35" xlink:href="#a"/>
<linearGradient id="ao" x1="508.5" x2="509.59" y1="253.1" y2="253.1" xlink:href="#a"/>
</defs>
<title>trade</title>
<path class="b2014d5b-e49b-44e9-bb32-1304096fbe0f" transform="translate(-1.5 -.9)" d="m509.8 254.8c0 2.4 0.7 1.5 0.8 1.9-0.3-4-1-1.8-0.8-1.9z"/>
<polygon class="1e452572-a63a-46cf-93da-0d83625489e7" points="503.9 215.9 502.2 210.4 503.5 215.3"/>
<path class="0fee0919-5451-4f38-846e-77c05615163a" transform="translate(-1.5 -.9)" d="M501.6,201l1.6,2.6c-.5-1.9-1-4-1.6-6s-1.1-4.2-1.8-6.2c-1.3-4-2.4-7.8-3.1-10.5-.2,3.6,4,12.5,4.8,19Z"/>
<path class="73677a2a-859e-472f-b446-242b0f5273eb" transform="translate(-1.5 -.9)" d="m493.9 165.2c-0.3-0.7-0.7-1.8-1.3-3.5 0 1.3-1.9-3.8 1.5 4.3a4.5 4.5 0 0 1-0.2-0.8z"/>
<path class="d64d58ce-656f-4644-9c53-4a932942c9df" transform="translate(-1.5 -.9)" d="M493.9,165.2c1.4,3.6-.6-2.5,0,0Z"/>
<path class="79fcbf17-03f1-458e-8853-7cf0951b42d5" transform="translate(-1.5 -.9)" d="M489.1,153.3c-.2-1.1-2-5.2-1.1-3.8-2.4-4.7-2.1-3.6-1.3-.7Z"/>
<path class="31bf1aa2-d73d-4c05-8a1f-0766a233b564" transform="translate(-1.5 -.9)" d="m483.9 144.9a17.1 17.1 0 0 1 1.3 2.3 5.49 5.49 0 0 0-1.3-2.3z"/>
<path class="67cc759d-71b4-4f16-a2ae-f99c0dc27da7" transform="translate(-1.5 -.9)" d="m487.8 152.1-2.6-4.9c0.1 0.8-0.2 1 1.2 2.3-0.6-0.3 0.2 0.5 1.4 2.6z"/>
<path class="c61cebc6-2654-4e3d-8b38-7fc8a0566b21" transform="translate(-1.5 -.9)" d="M490.1,158.6c.1.6-.1.3-1.3-1.9,1.9,4.4,2.9,6.3,2.9,5.9a12.4,12.4,0,0,0-.6-2.2,35.72,35.72,0,0,0-2.2-5.3A24.37,24.37,0,0,1,490.1,158.6Z"/>
<path class="6b56a74a-fc33-4044-b3c3-63a98e61d304" transform="translate(-1.5 -.9)" d="M497.1,186.2c-.3-.8-.7-2.5-1.1-4.1s-.8-2.8-1-2.6c.3,1.2.6,2.4.8,3.7Z"/>
<path class="f7b5a6a0-cc14-462f-823e-50f9514a83b6" transform="translate(-1.5 -.9)" d="m472.1 120.8c-0.4-0.1 0.4 1.8 0.3 2.3a34.57 34.57 0 0 1 2.2 3.1c-0.8-1.9-2.7-5-2.5-5.4z"/>
<path class="d37f0a0a-b639-4e7f-a223-00e07626007f" transform="translate(-1.5 -.9)" d="m472.4 123-3.4-4.5c2.7 4.3 3.3 4.9 3.4 4.5z"/>
<path class="1584ce46-bda8-4dba-9cb5-8d8dcb024656" transform="translate(-1.5 -.9)" d="M483.5,146.6l1.1,2,2.3,4c-1.8-3.2-3.5-6.4-5.5-9.5l.8,1.6Z"/>
<path class="d2a1ea1a-4c24-431b-a14a-0b8f59a863d3" transform="translate(-1.5 -.9)" d="m462.3 105.3-2-2.1-2.1-2 1.8 1.8c0.8 0.7 1.5 1.5 2.3 2.3z"/>
<path class="5c9277c9-01b7-4342-ab1c-9b2f7b029494" transform="translate(-1.5 -.9)" d="m451.4 90.7a78.59 78.59 0 0 0-7.3-7.1 59.53 59.53 0 0 1 7 8.4c1.8 1.4-1.6-3 0.3-1.3z"/>
<path class="2d26df3f-9a02-47b5-91b4-744f69e19ec2" transform="translate(-1.5 -.9)" d="m440.2 80.3c1.2 1.1 2.4 2.1 3.8 3.3a39 39 0 0 0-3.8-3.3z"/>
<path class="a57aaaff-4f2b-422e-a2ec-5f71445d18de" transform="translate(-1.5 -.9)" d="M462.5,108.8a20.28,20.28,0,0,0,1.3,1.8c-.1-.4-.3-1.3-2-4Z"/>
<path class="e7ec75ee-46e8-4951-9400-7326876b88b7" transform="translate(-1.5 -.9)" d="m462.5 108.8c-1.4-2-2.3-3.4-2.8-4 0.4 0.6 1.3 1.8 2.8 4z"/>
<path class="c8c20490-6654-4100-af0f-defe0ef9e9c1" transform="translate(-1.5 -.9)" d="m464.1 111c-0.1-0.2-0.2-0.3-0.3-0.5 0.1 0.3 0.1 0.4 0.3 0.5z"/>
<path class="1ea40757-8d76-4929-8568-25bb6a21cc99" transform="translate(-1.5 -.9)" d="m473 129.1c1.6 1.8 0-1.7 2.9 2.3-1.9-2.6-5.6-8.3-2.9-2.3z"/>
<path class="d42ac4b9-d99c-4ea9-ae34-3396a1fd4e66" transform="translate(-1.5 -.9)" d="m468.9 118.8c-1.3-1.7-2.5-3.4-3.9-5.1 1.1 1.6 2.1 3.4 3.1 5.1 0.1-0.2-0.3-1.3 0.8 0z"/>
<polygon class="b1ab6ae4-d2f0-41b1-b927-eb84b0ff0574" points="461.6 110.6 463.5 112.8 462.2 111"/>
<path class="fa83520e-a1b1-4576-801c-c701ad1468b5" transform="translate(-1.5 -.9)" d="m447.3 89.9c0.5 0.2 1.7 1.1-0.7-1.7a39.65 39.65 0 0 1-2.9-2.9c-1-1-2-2.1-3.2-3.2 1.1 1.3 2.3 2.5 3.4 3.9s2.3 2.7 3.4 3.9z"/>
<path class="dd525a28-e50d-4518-b8f1-fa585bf2c907" transform="translate(-1.5 -.9)" d="m454.6 98.1-0.4-0.4c0.1 0.3 0.3 0.5 0.4 0.4z"/>
<path class="ac4e4939-a3df-47b7-a428-575788499bc9" transform="translate(-1.5 -.9)" d="M417.9,60.7c.1.1.2.3.3.4h.2Z"/>
<path class="2925a68b-7dd6-4f6d-87bf-d0653f804d16" transform="translate(-1.5 -.9)" d="m447.6 90.5a25.14 25.14 0 0 0 3.8 4c-1.3-1.4-2.7-2.9-4.1-4.5-0.2-0.1-0.3-0.1 0.3 0.5z"/>
<path class="9210e7d4-b28f-41f1-a3b0-a60e7a346b0f" transform="translate(-1.5 -.9)" d="m433.8 74.3c0.9 1 1.9 2.2 2.9 3.4a15.21 15.21 0 0 0-2.9-3.4z"/>
<path class="53603cdf-be75-43c9-9721-0e2b17198f1e" transform="translate(-1.5 -.9)" d="m453.8 96.9 0.3 0.3c-0.4-0.8-0.4-0.7-0.3-0.3z"/>
<path class="5cfb323b-a13d-4d0e-82aa-717fffa16246" transform="translate(-1.5 -.9)" d="m453.8 96.9c-0.9-1-1.7-1.7-2.4-2.4 1 1.2 2 2.3 2.8 3.2a5.9 5.9 0 0 1-0.4-0.8z"/>
<path class="4a9b81b7-56f8-46cf-ae29-6481cf239c36" transform="translate(-1.5 -.9)" d="m426.6 68.6 1.8 1.6c-1.9-2-3.2-3.5-5.6-6.2-3.3-2.4-4-2.8-4.4-2.8 3 2.6 6 5.2 8.9 7.9z"/>
<path class="b6134347-1ea4-4c7a-924d-42b46c06acaf" transform="translate(-1.5 -.9)" d="M436.2,77.7c-1.8-.9-6.2-4.6-4.2-1.7,2.6,2.4,3.5,3.3,4.2,3.8A17,17,0,0,1,439,82c-8-8.1,2.5,2.1-2.9-4.1,1.6,1.5,3.1,3,4.4,4.3q-2.1-2.4-3.9-4.5l.2.2h0c.3.4.4.6,0,.1l-.2-.2c0,.1-.2,0-.4-.1-2.2-2.5-.2-.5.5.2h.2c-1.3-1.4-2.8-2.6-4.2-3.9l-4.3-3.8C430,72,432.3,73.9,436.2,77.7Z"/>
<path class="bc155fbb-6f72-4c9a-9555-f89a72679a29" transform="translate(-1.5 -.9)" d="m468.7 124.7c-0.1-0.3-0.1-0.3-0.1-0.4-0.5-0.6-0.7-0.8 0.1 0.4z"/>
<path class="a83b0d87-45ac-42e0-a2bc-c8d9d6f636b2" transform="translate(-1.5 -.9)" d="m465 115.3a0.76 0.76 0 0 0-0.1-0.4c-0.1-0.1-0.1 0.1 0.1 0.4z"/>
<path class="91de788c-054a-48dd-9a96-9d85a86cee63" transform="translate(-1.5 -.9)" d="m469.6 124.4-0.5-0.6a60.25 60.25 0 0 1-4.1-8.4 23 23 0 0 0 1.5 5.2 18.71 18.71 0 0 1 2.5 3.4c1.1 2.1-0.3 0.2-0.4 0.4 1 1.2 3.4 4.5 1 0z"/>
<path class="e4873cf1-1bb8-4d02-8ab7-a3ba1b2aed37" transform="translate(-1.5 -.9)" d="M448.5,95.3l.1-.4c3.3,4.2,2.9,3.1,3.5,3.4-2-2.5-4.2-4.7-6.3-7Z"/>
<path class="d44b9208-d170-4220-86fc-da0633f5be61" transform="translate(-1.5 -.9)" d="m418.7 60c-1.6-1-3.3-1.8-5-2.7l3.5 2.4z"/>
<path class="aaba46b4-0859-48eb-a8d0-09eda088426f" transform="translate(-1.5 -.9)" d="m408.2 51.9a26.94 26.94 0 0 0-2.9-1.6l2.1 1.8z"/>
<path class="9ee2e83b-3681-4fa8-b893-62c40caf8a66" transform="translate(-1.5 -.9)" d="m113.1 43.4 1.4-0.1a42.62 42.62 0 0 1 5.9-3.6c-3.7 1.7-8.1 3.4-7.3 3.7z"/>
<path class="dfe88e45-4077-44b2-9699-5d09ceef9e03" transform="translate(-1.5 -.9)" d="m291 4.3c-3.5-0.7-6.2-1.2-8.7-1.5 4.2 0.9 7.5 1.9 8.7 1.5z"/>
<path class="68a5a871-cd02-42cc-8907-50e53ff0a659" transform="translate(-1.5 -.9)" d="m31.5 379.6c1 1.4 1.5 2 1.6 1.9-1-1.5-1.6-2.3-1.6-1.9z"/>
<path class="f8aa25c4-080b-4d2e-9171-659e1134943f" transform="translate(-1.5 -.9)" d="M272.2,1.9c.6.1,1.2.2,1.9.3,2.6.1,5.2.1,8.3.5A42.23,42.23,0,0,0,272.2,1.9Z"/>
<path class="60853fb5-24b0-4efd-9f23-f5ad70feda65" transform="translate(-1.5 -.9)" d="m506.1 295.3c0.2-0.8 0.3-2.3 0.6-4.8-0.2 1.2-0.4 3.1-0.6 4.8z"/>
<path class="cf5ed001-7a09-4f37-aeb0-a69fbaf6d8a1" transform="translate(-1.5 -.9)" d="M364.9,26c2.4,1.1.4.1,0,0Z"/>
<path class="09d177e6-fc30-48f4-8192-c18641d71527" transform="translate(-1.5 -.9)" d="m373.9 34.1a1.61 1.61 0 0 1 1.1 0.2c-0.5-0.2-1-0.3-1.1-0.2z"/>
<path class="2dd0008c-9796-4518-9979-98526ef99e3e" transform="translate(-1.5 -.9)" d="m368.3 28.1c-0.8-0.5-1.8-1.1-2.9-1.7 0.4 0.3 1.3 0.8 2.9 1.7z"/>
<path class="72a1d6de-03f3-4987-a791-e2476d0f36cd" transform="translate(-1.5 -.9)" d="m368 27.6c0.8 0.4 1.4 0.8 2 1.1 0.3 0 0.1-0.2-2-1.1z"/>
<path class="12dfd741-1497-4517-810a-12e95a9f2ff1" transform="translate(-1.5 -.9)" d="m364.9 26c-0.7-0.3-1.7-0.8-3.4-1.5 1.4 0.6 2.6 1.2 3.9 1.8-0.5-0.2-0.7-0.3-0.5-0.3z"/>
<path class="aba3e9e7-02ed-4122-9593-e6353018fc27" transform="translate(-1.5 -.9)" d="M507.7,263.8l.1,4.7c-.5-3.1-1.2-1-2.1,1.8-.1.3-.2.5-.3.8.3-4.7.4-9.5.4-14.3A250.78,250.78,0,0,0,427.1,74.2l.1-.4c-2.2-2-3.9-3.4-2.9-2.2-1.8-1.7-3.7-3.3-5.5-4.9,3.5,2.2,2.2-1.5-.6-5.4-.3.1-.4.2-5.3-3.1,1.5,1.4,9.4,9,5.3,6.2-3-2.4-4.2-3.4-5-4.2s-1.1-1.3-2.5-2.6c1,1.3-1.1,0-3.4-1.3a13.2,13.2,0,0,0-4.2-2c-3.1-2.3-6.3-4.5-9.6-6.7l-.7-1.4-2.2-.6,2.5,1.7a242.93,242.93,0,0,0-29.8-16.9c.3,0,.3-.1-.2-.4l-4-1.7c-3.3-2.3,7.8,2.5,3-.1,2.8.9,5.6,2.2,8.8,3.5a52.38,52.38,0,0,1,4.8,2.3c1.6.9,3.3,1.9,5,3l.8,1.6c0-.3-4.4-3.2-6.5-4.1,1.6.6,4.2,2.5,6.8,4.3,1.3.9,2.7,1.8,3.9,2.5a14,14,0,0,0,3.3,1.6c-1.5-1.2-3-2.5-4.5-3.6,2.7,1.2,5.6,2.8,8.7,4.4,1.5.8,3.1,1.6,4.6,2.6s3,2,4.5,3.2c-2.2-2.7-1.4-.9-5.1-4.8,3,3.6-15.8-10.2-10.5-5a41.7,41.7,0,0,0-6-4.6c-2.1-1.4-4.4-2.8-7.3-4.9,0,.4,1.9,1.7-3.5-1.3a3.82,3.82,0,0,1-1.3-.4l-.4-.2c.1.1.2.1.3.2-.3-.1-.3-.1.1.1a22.24,22.24,0,0,1,2.6,1.9c-1.5-.3-4.4-1.7-7.4-3s-6-2.5-7.6-3c-3.3-1.6,1.5.3-.1-.9-1.6-.5-3.2-1-4.8-1.4-.2-.8-8.6-4.7-.4-1.9l-7.2-2.9c-2.1-1-4.6-2-7.1-2.9a55.88,55.88,0,0,0-6.8-2.1c-3.5-1.2-9.1-1.8-5.9-1.4-2-.5-3.9-1-5.9-1.4l-6-1.1V8.1c-5.8-1.5-12-2.2-18.3-3.2-6.4-.6-12.9-1.6-19.7-2.7-2-.1-4.1-.1-6.5-.2s-5.1-.1-8.5-.3L257.7,1c-2.6,0-6.5,0-10-.1s-6.7,0-7.8.5a29.73,29.73,0,0,0-6.5-.3c-1.4,0-2.9.1-4.5.2s-3.2.4-4.9.6c-3.3.5-6.8.9-10,1.5s-6.1,1.2-8.3,1.5L205.5,6l-2.3.4-2.3.5-4.6,1.2c-1.6.4-3.2.9-4.9,1.3s-3.4,1.1-5.3,1.7l.7.6c-3.1,1.2-7.3,2.1-11.9,3.6q-3.45,1.05-7.2,2.1c-2.4.8-4.9,1.8-7.4,2.8a25.26,25.26,0,0,1,4.9-2,76.52,76.52,0,0,0-9.2,3.1c-3,1.3-6,2.9-8.9,4.4s-5.7,3.2-8.5,4.7-5.5,2.8-8.1,4a41,41,0,0,1-6,3.5c.2-.1.4-.3.6-.4-.3.1-.6.4-1,.6a30.21,30.21,0,0,0-3.6,1.8c1.1-.5,2.1-1,3.1-1.4-1.9,1.1-4.6,3.1-7.3,5l-1.6.1a2.09,2.09,0,0,1-.6.4c-2.9,1.5-2,1.7-.2,1.3a36.26,36.26,0,0,0-3.3,2.8c-1.4.2-3.1,1.6-4.9,3-.9.7-1.8,1.4-2.7,2a8.73,8.73,0,0,1-2.7,1.4c-.7.9-3.8,3.6-6.9,6.3a45.93,45.93,0,0,0-5.7,6.1A43.36,43.36,0,0,0,80.1,74l-2.1.2-2.4,3.2-2.3,3.3c-3.8,3.1-5.4,4.3-2.6.3-1.8,2.3-3.1,3.9-4.1,5.1s-1.7,2.2-2.3,3c-1.3,1.7-2.5,3.2-5.2,7.3l-.2-.8c-2.2,2.8-5,7.7-6.7,9.1a80.86,80.86,0,0,0-6.1,7.6c-.6.9-1.3,1.8-2,2.8s-1.3,2-2,3.1c-1.4,2.2-2.9,4.4-4.4,6.8-5.8,9.7-11.8,21.1-16.3,30.2,1.7-1.4.5.6-.9,3.2s-2.9,5.8-2.4,6.5c-.8.9-2.1,3.5-1.3.3a26.8,26.8,0,0,1-1.3,3.4c-.4,1.1-.7,2.1-1.1,3.1-.7,1.9-1.3,3.7-1.9,5.3a36.77,36.77,0,0,0-2.4,9.9c-.8,1,0-2.3-.6-1.4a15.14,15.14,0,0,1-1.1,4.3c-.5.9.1-1.6.3-3.2-.7,2.6-1.2,4.6-1.5,6.2a17.17,17.17,0,0,0-.2,3.7,3.73,3.73,0,0,0,1.2,2.9,38.94,38.94,0,0,0-1.8,6.2,24.2,24.2,0,0,0-.2,5.4c-.7,1.7-1.7,4.7-.7-1.7-.2.9-.5,2.7-1,5-.2,1.1-.5,2.4-.7,3.6s-.4,2.6-.5,3.9c-.7,5.2-1.2,10-.6,10.2a31.79,31.79,0,0,0-.4,6.1c-.2,2.1-.3,3.6-.4,5s-.1,2.5-.2,3.6c-.1,2.2-.1,4.4-.2,8.5l.2-2.2c1.1,3.2.3,6.7.6,13.3l-.1-.2a55.86,55.86,0,0,0,.1,7.6c.1,1.5.2,2.3.3,3.1s.2,1.6.3,3.1c0,.8.1,1.7.1,2.9s.2,2.7.3,4.5l.7-.9c.9.6,1.1,3.8,1.2,8A75.73,75.73,0,0,0,7,307.8l-.1-3.1a43.64,43.64,0,0,1,.9,8.9c.1,3.3,0,6.8.6,9.1.2,1-.7-1.5-1.1-2.9,2.4,12.2,1.4,1.3,4.1,10.1,0,1.8-2-1.7-.3,4.3.3,1.5,2.1,5.7,4.2,10.5,1.1,2.4,2.3,4.9,3.3,7.3.5,1.2,1,2.4,1.4,3.6a25.58,25.58,0,0,1,1.2,3.2c-.4-1.9-.8-3.7,1.3,0,2.7,5.9,6.2,16.8,10.3,21.3.3.8.4,1.1.3,1.2.7,1.1,1.6,2.4,2.6,4s2,3.2,3.2,4.8a73.08,73.08,0,0,0,5.5,7.1c0,1.4,1.3,3.5,3.1,6.1a90.18,90.18,0,0,0,6.5,8.3c2.4,2.7,4.6,5.4,6.2,7.3s2.6,3.3,2.1,3.7c1.7,1.9,3.4,3.9,5.1,5.8l5.4,5.5-.5-.1c1.7,1.8,3.1,3.3,4.4,4.5s2.4,2.2,3.4,3a42.93,42.93,0,0,0,4.9,3.5c1.6,1.6.2.7,0,.7,5.3,4.9,8.2,7.6,11.2,9.7a93.36,93.36,0,0,0,11.1,7l.6,1.4c2.8,1.7,16.5,12.9,29.6,18.5a4.35,4.35,0,0,1-1.6-.4c7.3,3.3,15.6,7.9,23.2,11.2,1.9.8,3.7,1.6,5.5,2.3.9.3,1.7.7,2.5,1a21.72,21.72,0,0,0,2.4.7c3,.9,5.5,1.4,7.1,1.1,3.4,1,6.8,1.5,10.2,2.3-12.9-3.9,2.3-.7-2.9-2.7a47.87,47.87,0,0,1,7.6,2.6c1.8.7,2.2,1.2-1,.4l-.9-.4c-2.8,1,16.2,4.5,15.7,5.3a311.32,311.32,0,0,0,39.2,5c3.2.1,6.5.3,9.7.4s6.4,0,9.6-.1c1.6,0,3.2,0,4.8-.1l4.8-.3c3.2-.3,6.3-.3,9.4-.8-1-.3-2-.5-3-.9,2.9-.3,5.8-.7,8.7-1,2.3,0,3.2.5-3,1.3a21.89,21.89,0,0,0,6.4-.9,16.36,16.36,0,0,0,4-1.4c12.1-1.7-4.5,2.2-.8,1.6l5-1-1.2.1c2-.6,3-1,4.5-1.5.7-.2,1.6-.4,2.7-.7s2.5-.6,4.3-1.1c4.7-.8,2.5.2,4.4-.2,0,.1.6,0,2.8-.6,3.6-.9,7.1-1.9,10.7-2.9l-4.5.3c2.3-.9,4.8-1.6,6-2s1.3-.6-1.3-.4c3.8-.3,13.6-3.3,22.7-7.1,2.3-.9,4.5-1.9,6.6-2.9s4.1-1.9,5.9-2.7c3.5-1.7,6.1-3.1,7.2-3.5,1.4-.9,2.9-1.8,4.4-2.7s2.9-1.9,4.5-2.8c3.1-1.9,6.4-3.6,9.9-5.9-1.8,1-3.4.7,2.6-3-.3.8.3.8,1.5.4a34.53,34.53,0,0,0,4.6-2.6c1.8-1.2,3.8-2.6,5.8-3.8a27.92,27.92,0,0,1,2.8-1.6,17.09,17.09,0,0,1,2.3-1.2c-2.4,1.2,1.6-2,5.3-5a36.27,36.27,0,0,0,4.3-4c.8-.9.7-1.1-1.1-.1,4.6-3.8.8.4,4.6-2.2,10.2-10,23.2-21.4,33.9-35.7-.1-.4-2.2,1.7-.2-1.6,2.4-2.1,4.5-4.4,6.7-6.7a12.17,12.17,0,0,0,1.5-3.5,5.43,5.43,0,0,1,1.1-1.9,20.26,20.26,0,0,1,2.3-2.9c-.7.6-1.7,1.6-.5-.5,10-14.1,18-30.1,24.3-46.7s11-33.8,15.1-51c-1.4,4.6-.9,1.5-.3-2.1-.5,2.3-.7-.2-1.1.2,1-4.8,2-9.6,2.9-14.5-.4-1.4-.2-5.3.1-9.1a49.74,49.74,0,0,0,.2-5.2A12.85,12.85,0,0,0,507.7,263.8ZM9,204.6v-1.1a16.59,16.59,0,0,0-.2,2.4c-.2.8-.3,1.7-.5,2.5-.6,1.5-1.1,2.9-1.4,3.8l.6-5.2c.2-1.7.6-3.4.9-5.2.5-1.2.6-.1.6,1.7.1-.7.1-1.4.2-1.9.4-1.2.7-1.8.9-1.9C9.7,201.2,9.4,202.9,9,204.6ZM69.6,87c1.1-1.8,2.1-3.7,3.2-5.5-.1.6.4.8,1,.9C72.5,83.9,71,85.4,69.6,87ZM87.2,67.3c-.2-.1-.9.5.3-.6A1.1,1.1,0,0,0,87.2,67.3Zm63.2-39.1c-4.3,2-8.5,4-12.6,6.2a57.41,57.41,0,0,1,11.4-8.1l2.1-.4c2.5-1.3,5-2.7,7.5-3.9C157.1,23.2,153.9,25.6,150.4,28.2ZM202.5,11l-.4-1.1-.8,1.4c-3,.6-5.9,1.3-8.9,2.1a2.14,2.14,0,0,1,1.1-2.5c.5-.1,4-.5,7.7-1.1a26.6,26.6,0,0,1,2.8-.3c.9-.1,1.8-.1,2.7-.2a27.85,27.85,0,0,1,3.9-.1,1.69,1.69,0,0,1,.9.2C208.5,9.8,205.5,10.4,202.5,11Zm35.8-4.9a33.7,33.7,0,0,1,6.1-1c-.3.2.5.5,1.1.6C243.1,5.8,240.7,5.9,238.3,6.1Zm99.6,9.6h-.2C333.7,14,335.1,14.6,337.9,15.7ZM315.6,503.6l-1.7.2C317.6,502.7,316.6,503.1,315.6,503.6ZM337.9,19.3c-3.7-1.1-6.4-2.2-8.9-3.1s-4.7-1.7-7.2-2.4l6.1,2.2a67.16,67.16,0,0,1-10-2.6c.5.2,1.1.5,1.9.8a250.22,250.22,0,0,0-34.9-6.7c.8-.1,1.7-.1,2.7-.2,1.9,0,4.1-.1,6.6.1s5.3.5,8.2.8c4.7.6,5.6,1.2,5.6,1.4s-1,.3-.1.4a78,78,0,0,0,9.9,2c2.4.5,4.3.7,6,.9a43.29,43.29,0,0,1,5.4.9,60.69,60.69,0,0,1,8,2.8C342.5,19.3,336.9,18.3,337.9,19.3Zm72.6,40.4a8.34,8.34,0,0,1,1.2.8c1,.7,2.1,1.5,3.2,2.4.8.7,1.6,1.5,2.4,2.3C415.1,63.4,412.8,61.5,410.5,59.7Z"/>
<path class="dbdf50be-9c33-457e-9cd9-2cb39d8ef6db" transform="translate(-1.5 -.9)" d="m388.4 38.5a2.09 2.09 0 0 1 0.6 0.4c-0.3-0.3-0.5-0.4-0.6-0.4z"/>
<path class="80eb10d3-95cd-459f-a434-99b391bb95fa" transform="translate(-1.5 -.9)" d="m388.4 38.5c-1.4-0.8-2.9-1.6-4.4-2.4a40.71 40.71 0 0 1 4.3 2.8c0-0.2-0.5-0.7 0.1-0.4z"/>
<path class="fe3cb59f-c2e1-49b5-b395-4e1891814bd1" transform="translate(-1.5 -.9)" d="M397,46.7c-1.2-.8-3.1-1.8-4.9-2.8,0,.4.8,1,2,1.8.6.4,1.3.8,2.1,1.3s1.6,1,2.4,1.6c-.2-.1-.4-.3-.6-.4C398.7,48.1,398.1,47.5,397,46.7Z"/>
<path class="e84ffb7d-84d4-4f7a-a530-ed2fb1df5488" transform="translate(-1.5 -.9)" d="m399.3 49.1 3 2.1c0.6 0-1.2-0.9-3-2.1z"/>
<path class="f048ca3a-974d-4376-84fe-bdcb45ed1c08" transform="translate(-1.5 -.9)" d="m359.1 23.4c1.1 0.1-1.9-1-3.9-1.6a4 4 0 0 0-1.8-0.3 33 33 0 0 0 3.4 1.5c1.6 0.9 1.4-0.3 2.3 0.4z"/>
<path class="6301d36e-9906-47b4-bc5e-fd7af07cc372" transform="translate(-1.5 -.9)" d="m366.9 31.3 5.5 3.1c0-0.2 0.7 0.1 1.6 0.5-3.4-1.8-7.1-3.8-7.1-3.6z"/>
<path class="03586370-66e4-4659-85a7-3bc66c8969d3" transform="translate(-1.5 -.9)" d="m374.1 34.9c1.8 1 3.4 1.9 4.5 2.4-1-0.5-3-1.7-4.5-2.4z"/>
<path class="823b5f9c-de71-497f-935a-e4777f98b799" transform="translate(-1.5 -.9)" d="M296.2,8.5c-.7.2,1.1.6,3.6,1,1.7.1,4.2.4,3.2,0Z"/>
<path class="28886037-c18a-4bbb-ae56-8b21eec3c0cd" transform="translate(-1.5 -.9)" d="M509.4,271.3c.3-1.8.4-3.5.6-5.3l-.6,3.4Z"/>
<path class="42a0649e-a09a-44fd-be15-9c9183a7ef0c" transform="translate(-1.5 -.9)" d="M509.6,259.9l-.9-3.2a30.27,30.27,0,0,1-.2,4.4Z"/>
<path class="33e392e9-50d7-4ff4-b54e-9c8efdf29473" transform="translate(-1.5 -.9)" d="M342.1,217.7h-21V168.8a27.74,27.74,0,0,0-27.7-27.7H143.7A27.74,27.74,0,0,0,116,168.8V318.5a27.74,27.74,0,0,0,27.7,27.7H158a38.29,38.29,0,0,0,76.54,0h71.76a38.29,38.29,0,0,0,76.55-.15A27.74,27.74,0,0,0,407.7,318.5V283.3A65.68,65.68,0,0,0,342.1,217.7ZM131,318.5V168.8a12.72,12.72,0,0,1,12.7-12.7H293.4a12.72,12.72,0,0,1,12.7,12.7V331.2H143.7A12.72,12.72,0,0,1,131,318.5Zm65.3,49.9A23.32,23.32,0,0,1,173,346.2h46.54A23.32,23.32,0,0,1,196.3,368.4Zm148.3,0a23.32,23.32,0,0,1-23.27-22.2h46.54A23.32,23.32,0,0,1,344.6,368.4Zm48.1-49.9A12.72,12.72,0,0,1,380,331.2H321.1V232.7h21a50.66,50.66,0,0,1,50.6,50.6Z"/>
</svg>
